<svg width="22" height="22" viewBox="0 0 22 22" fill="none" xmlns="http://www.w3.org/2000/svg">
<path d="M0 2.44435V10.3889H10.3889V0H2.44435C1.09436 0 0 1.09436 0 2.44435ZM3.36113 4.58339H4.58339V3.36113C4.58339 3.02359 4.85698 2.75 5.19452 2.75C5.53206 2.75 5.80565 3.02359 5.80565 3.36113V4.58339H7.02791C7.36528 4.58339 7.63904 4.85698 7.63904 5.19452C7.63904 5.53206 7.36545 5.80565 7.02791 5.80565H5.80565V7.02791C5.80565 7.36528 5.53206 7.63904 5.19452 7.63904C4.85698 7.63904 4.58339 7.36545 4.58339 7.02791V5.80565H3.36113C3.02359 5.80565 2.75 5.53206 2.75 5.19452C2.75 4.85698 3.02359 4.58339 3.36113 4.58339Z" fill="#898989"/>
<path d="M19.5558 0H11.6113V10.3889H22.0002V2.44435C22.0002 1.09436 20.9058 0 19.5558 0ZM18.6391 5.80565H14.9725C14.6349 5.80565 14.3613 5.53206 14.3613 5.19435C14.3613 4.85681 14.6349 4.58322 14.9725 4.58322H18.6391C18.9766 4.58322 19.2502 4.85681 19.2502 5.19435C19.2502 5.53206 18.9766 5.80565 18.6391 5.80565Z" fill="#898989"/>
<path d="M0 19.5556C0 20.9056 1.09436 22 2.44435 22H10.3889V11.6111H0V19.5556ZM3.4662 15.9414C3.23172 15.6985 3.23843 15.3118 3.48114 15.0773C3.71797 14.8485 4.09344 14.8485 4.33028 15.0773L5.19452 15.9414L6.05859 15.0773C6.30147 14.8428 6.68835 14.8495 6.92284 15.0922C7.15144 15.3291 7.15144 15.7045 6.92284 15.9414L6.05859 16.8056L6.92284 17.6697C7.16554 17.9042 7.17226 18.291 6.93777 18.5338C6.70329 18.7766 6.31641 18.7833 6.0737 18.5489C6.0685 18.544 6.06363 18.539 6.05859 18.5338L5.19452 17.6697L4.33028 18.5338C4.08757 18.7684 3.70068 18.7617 3.4662 18.5188C3.23743 18.282 3.23743 17.9065 3.4662 17.6697L4.33028 16.8056L3.4662 15.9414Z" fill="#898989"/>
<path d="M11.6113 22H19.5558C20.9058 22 22.0002 20.9056 22.0002 19.5556V11.6111H11.6113V22ZM14.9725 14.9722H18.6391C18.9766 14.9722 19.2502 15.2458 19.2502 15.5833C19.2502 15.9209 18.9766 16.1945 18.6391 16.1945H14.9725C14.6349 16.1945 14.3613 15.9209 14.3613 15.5833C14.3613 15.2458 14.6349 14.9722 14.9725 14.9722ZM14.9725 17.4166H18.6391C18.9766 17.4166 19.2502 17.6902 19.2502 18.0277C19.2502 18.3652 18.9766 18.6388 18.6391 18.6388H14.9725C14.6349 18.6388 14.3613 18.3652 14.3613 18.0277C14.3613 17.6902 14.6349 17.4166 14.9725 17.4166Z" fill="#898989"/>
</svg>
