<svg width="20" height="20" viewBox="0 0 20 20" fill="none" xmlns="http://www.w3.org/2000/svg">
<path d="M1.37486 7.14282C0.617971 7.14282 0 7.76652 0 8.52466V14.3324C0 15.0906 0.617971 15.7143 1.37486 15.7143H12.9109C13.6677 15.7143 14.2857 15.0906 14.2857 14.3324V8.52466C14.2857 7.76652 13.6677 7.14282 12.9109 7.14282H1.37486ZM2.5 9.28568H3.57143C4.35668 9.28568 5 9.929 5 10.7143C5 11.4995 4.35668 12.1428 3.57143 12.1428H2.85714V13.2143C2.85714 13.4115 2.69724 13.5714 2.5 13.5714C2.30276 13.5714 2.14286 13.4115 2.14286 13.2143V11.7857V9.64282C2.14288 9.44559 2.30276 9.2857 2.5 9.28568ZM6.07143 9.28568H7.14286C7.92811 9.28568 8.57143 9.929 8.57143 10.7143C8.57143 11.4995 7.92811 12.1428 7.14286 12.1428H6.42857V13.2143C6.42857 13.4115 6.26867 13.5714 6.07143 13.5714C5.87419 13.5714 5.71429 13.4115 5.71429 13.2143V11.7857V9.64282C5.71431 9.44559 5.87419 9.2857 6.07143 9.28568ZM9.375 9.28568H12.0536C12.2508 9.28568 12.4107 9.44558 12.4107 9.64282C12.4107 9.84006 12.2508 9.99996 12.0536 9.99996H11.0714V13.2143C11.0714 13.4115 10.9115 13.5714 10.7143 13.5714C10.517 13.5714 10.3571 13.4115 10.3571 13.2143V9.99996H9.375C9.17776 9.99996 9.01786 9.84006 9.01786 9.64282C9.01786 9.44558 9.17776 9.28568 9.375 9.28568ZM2.85714 9.99996V11.4285H3.57143C3.97332 11.4285 4.28571 11.1161 4.28571 10.7143C4.28571 10.3124 3.97332 9.99996 3.57143 9.99996H2.85714ZM6.42857 9.99996V11.4285H7.14286C7.54475 11.4285 7.85714 11.1161 7.85714 10.7143C7.85714 10.3124 7.54475 9.99996 7.14286 9.99996H6.42857Z" fill="#898989"/>
<path d="M6.78571 0C5.80261 0 5 0.802606 5 1.78571V6.42857H12.8571C14.0064 6.42857 14.9463 7.3784 14.9463 8.52469V14.3325C14.9463 15.4787 14.0064 16.4286 12.8571 16.4286H5V18.2143C5 19.1974 5.80261 20 6.78571 20H18.2143C19.1974 20 20 19.1974 20 18.2143V5.71429H15.7143C14.929 5.71429 14.2857 5.07097 14.2857 4.28571V0H6.78571ZM15 0.168108V4.28571C15 4.68761 15.3124 5 15.7143 5H19.7635C19.7271 4.94947 19.6894 4.89973 19.6456 4.85491L15.2553 0.359933C15.1793 0.282129 15.0917 0.221222 15 0.168108V0.168108Z" fill="#898989"/>
</svg>
