<svg width="26" height="22" viewBox="0 0 26 22" fill="none" xmlns="http://www.w3.org/2000/svg">
<path d="M25.2659 0.734335C24.7762 0.244687 24.1879 0 23.5001 0H2.50007C1.81258 0 1.22398 0.244687 0.734335 0.734335C0.244797 1.22409 0 1.81247 0 2.50012V19.5003C0 20.188 0.244797 20.7759 0.734335 21.2658C1.22398 21.7556 1.81252 22 2.50007 22H23.5001C24.1878 22 24.7761 21.7556 25.2659 21.2658C25.7555 20.7759 26.0001 20.1876 26.0001 19.5003V2.50012C26.0001 1.81247 25.7555 1.22393 25.2659 0.734335ZM8.00024 19.4997C8.00024 19.646 7.95323 19.7655 7.85937 19.8593C7.76568 19.953 7.64599 19.9995 7.49998 19.9995H2.50007C2.35438 19.9995 2.23447 19.9529 2.14067 19.8593C2.04692 19.7655 2.00013 19.646 2.00013 19.4997V16.4995C2.00013 16.3535 2.04692 16.234 2.14067 16.1405C2.23447 16.0465 2.35438 15.9997 2.50007 15.9997H7.50014C7.6461 15.9997 7.76601 16.0465 7.85954 16.1405C7.95318 16.234 8.00019 16.3535 8.00019 16.4995V19.4997H8.00024ZM8.00024 13.5C8.00024 13.6457 7.95323 13.7656 7.85937 13.8592C7.76568 13.953 7.64599 13.9998 7.49998 13.9998H2.50007C2.35438 13.9998 2.23447 13.953 2.14067 13.8592C2.04692 13.7656 2.00013 13.6457 2.00013 13.5V10.4999C2.00013 10.3541 2.04692 10.2342 2.14067 10.1405C2.23447 10.0469 2.35438 10.0001 2.50007 10.0001H7.50014C7.6461 10.0001 7.76579 10.0469 7.85954 10.1405C7.95318 10.2342 8.00019 10.3541 8.00019 10.4999V13.5H8.00024ZM8.00024 7.49998C8.00024 7.64588 7.95323 7.76557 7.85937 7.85937C7.76568 7.9529 7.64599 7.99991 7.49998 7.99991H2.50007C2.35438 7.99991 2.23447 7.9529 2.14067 7.85937C2.04692 7.76552 2.00013 7.64588 2.00013 7.49998V4.49998C2.00013 4.35407 2.04692 4.23422 2.14067 4.14058C2.23447 4.04683 2.35438 4.00004 2.50007 4.00004H7.50014C7.6461 4.00004 7.76579 4.04683 7.85954 4.14058C7.95318 4.23422 8.00019 4.35407 8.00019 4.49998V7.49998H8.00024ZM16.0003 19.4997C16.0003 19.646 15.9535 19.7655 15.86 19.8593C15.7664 19.953 15.6466 19.9995 15.5004 19.9995H10.5C10.3543 19.9995 10.2344 19.9529 10.1406 19.8593C10.0469 19.7655 10.0001 19.646 10.0001 19.4997V16.4995C10.0001 16.3535 10.0469 16.234 10.1406 16.1405C10.2344 16.0465 10.3543 15.9997 10.5 15.9997H15.5002C15.6463 15.9997 15.7661 16.0465 15.8598 16.1405C15.953 16.234 15.9999 16.3535 15.9999 16.4995V19.4997H16.0003V19.4997ZM16.0003 13.5C16.0003 13.6457 15.9535 13.7656 15.86 13.8592C15.7664 13.953 15.6466 13.9998 15.5004 13.9998H10.5C10.3543 13.9998 10.2344 13.953 10.1406 13.8592C10.0469 13.7656 10.0001 13.6457 10.0001 13.5V10.4999C10.0001 10.3541 10.0469 10.2342 10.1406 10.1405C10.2344 10.0469 10.3543 10.0001 10.5 10.0001H15.5002C15.6463 10.0001 15.7661 10.0469 15.8598 10.1405C15.953 10.2342 15.9999 10.3541 15.9999 10.4999V13.5H16.0003ZM16.0003 7.49998C16.0003 7.64588 15.9535 7.76557 15.86 7.85937C15.7664 7.9529 15.6466 7.99991 15.5004 7.99991H10.5C10.3543 7.99991 10.2344 7.9529 10.1406 7.85937C10.0469 7.76552 10.0001 7.64588 10.0001 7.49998V4.49998C10.0001 4.35407 10.0469 4.23422 10.1406 4.14058C10.2344 4.04683 10.3543 4.00004 10.5 4.00004H15.5002C15.6463 4.00004 15.7661 4.04683 15.8598 4.14058C15.953 4.23422 15.9999 4.35407 15.9999 4.49998V7.49998H16.0003V7.49998ZM24 19.4997C24 19.646 23.9532 19.7655 23.8598 19.8593C23.7658 19.953 23.6459 19.9995 23.5002 19.9995H18.5006C18.3543 19.9995 18.2345 19.9529 18.141 19.8593C18.0474 19.7655 18.0009 19.646 18.0009 19.4997V16.4995C18.0009 16.3535 18.0474 16.234 18.141 16.1405C18.2345 16.0465 18.3543 15.9997 18.5006 15.9997H23.5002C23.6459 15.9997 23.7658 16.0465 23.8598 16.1405C23.9532 16.234 24 16.3535 24 16.4995V19.4997ZM24 13.5C24 13.6457 23.9532 13.7656 23.8598 13.8592C23.7658 13.953 23.6459 13.9998 23.5002 13.9998H18.5006C18.3543 13.9998 18.2345 13.953 18.141 13.8592C18.0474 13.7656 18.0009 13.6457 18.0009 13.5V10.4999C18.0009 10.3541 18.0474 10.2342 18.141 10.1405C18.2345 10.0469 18.3543 10.0001 18.5006 10.0001H23.5002C23.6459 10.0001 23.7658 10.0469 23.8598 10.1405C23.9532 10.2342 24 10.3541 24 10.4999V13.5ZM24 7.49998C24 7.64588 23.9532 7.76557 23.8598 7.85937C23.7658 7.9529 23.6459 7.99991 23.5002 7.99991H18.5006C18.3543 7.99991 18.2345 7.9529 18.141 7.85937C18.0474 7.76552 18.0009 7.64588 18.0009 7.49998V4.49998C18.0009 4.35407 18.0474 4.23422 18.141 4.14058C18.2345 4.04683 18.3543 4.00004 18.5006 4.00004H23.5002C23.6459 4.00004 23.7658 4.04683 23.8598 4.14058C23.9532 4.23422 24 4.35407 24 4.49998V7.49998Z" fill="#fff"/>
</svg>
