<svg width="41" height="24" viewBox="0 0 41 24" fill="none" xmlns="http://www.w3.org/2000/svg">
<path d="M7.28493 8.19368V7.06278C7.28536 6.86744 7.2341 6.67577 7.13678 6.50889C7.03947 6.34201 6.89988 6.20641 6.73341 6.11704C6.56657 6.02819 6.37961 5.98868 6.19278 6.0028C6.00595 6.01691 5.82639 6.0841 5.67355 6.1971L0.422198 10.1102C0.291412 10.2096 0.184992 10.3398 0.111619 10.4902C0.0382466 10.6407 0 10.8071 0 10.9759C0 11.1447 0.0382466 11.3111 0.111619 11.4615C0.184992 11.612 0.291412 11.7422 0.422198 11.8416L5.69753 15.7497C5.84938 15.8639 6.02852 15.9322 6.21519 15.947C6.40187 15.9618 6.58884 15.9225 6.75549 15.8335C6.92213 15.7445 7.06199 15.6092 7.15964 15.4425C7.25729 15.2759 7.30895 15.0843 7.30891 14.889V13.5579C8.26806 13.5829 10.6324 13.7981 12.0087 15.1892C12.6159 15.8116 12.9828 16.645 13.0398 17.5311C13.0439 17.5968 13.0604 17.661 13.0883 17.7201C13.1162 17.7792 13.1549 17.8319 13.2023 17.8754C13.2498 17.9188 13.3049 17.9521 13.3647 17.9733C13.4244 17.9945 13.4876 18.0032 13.5506 17.9989C13.6136 17.9947 13.6751 17.9775 13.7317 17.9484C13.7884 17.9193 13.8389 17.8789 13.8806 17.8294C13.9222 17.7799 13.9541 17.7223 13.9744 17.66C13.9947 17.5976 14.0031 17.5317 13.999 17.466C13.9558 14.0984 13.1166 11.5864 11.5052 9.9901C10.356 8.87339 8.85479 8.23435 7.28493 8.19368V8.19368Z" fill="#898989"/>
<path d="M33.7151 8.19368V7.06278C33.7146 6.86744 33.7659 6.67577 33.8632 6.50889C33.9605 6.34201 34.1001 6.20641 34.2666 6.11704C34.4334 6.02819 34.6204 5.98868 34.8072 6.0028C34.994 6.01691 35.1736 6.0841 35.3264 6.1971L40.5778 10.1102C40.7086 10.2096 40.815 10.3398 40.8884 10.4902C40.9618 10.6407 41 10.8071 41 10.9759C41 11.1447 40.9618 11.3111 40.8884 11.4615C40.815 11.612 40.7086 11.7422 40.5778 11.8416L35.3025 15.7497C35.1506 15.8639 34.9715 15.9322 34.7848 15.947C34.5981 15.9618 34.4112 15.9225 34.2445 15.8335C34.0779 15.7445 33.938 15.6092 33.8404 15.4425C33.7427 15.2759 33.6911 15.0843 33.6911 14.889V13.5579C32.7319 13.5829 30.3676 13.7981 28.9913 15.1892C28.3841 15.8116 28.0172 16.645 27.9602 17.5311C27.9561 17.5968 27.9396 17.661 27.9117 17.7201C27.8838 17.7792 27.8451 17.8319 27.7977 17.8754C27.7502 17.9188 27.6951 17.9521 27.6353 17.9733C27.5756 17.9945 27.5124 18.0032 27.4494 17.9989C27.3864 17.9947 27.3249 17.9775 27.2683 17.9484C27.2116 17.9193 27.1611 17.8789 27.1194 17.8294C27.0778 17.7799 27.0459 17.7223 27.0256 17.66C27.0053 17.5976 26.9969 17.5317 27.001 17.466C27.0442 14.0984 27.8834 11.5864 29.4948 9.9901C30.644 8.87339 32.1452 8.23435 33.7151 8.19368V8.19368Z" fill="#898989"/>
<rect width="1" height="24" transform="matrix(-1 0 0 1 21 0)" fill="#898989"/>
</svg>
