<svg width="24" height="16" viewBox="0 0 24 16" fill="none" xmlns="http://www.w3.org/2000/svg">
<path d="M11.9999 0C6.86904 0 2.40026 3.22256 0 8C2.40026 12.7783 6.86904 16 11.9999 16C17.1307 16 21.5994 12.7783 23.9997 8C21.5994 3.22256 17.1307 0 11.9999 0ZM11.9999 13C9.23807 13 6.99982 10.7618 6.99982 8C6.99982 5.23822 9.23807 2.99996 11.9999 2.99996C14.7616 2.99996 16.9999 5.23822 16.9999 8C16.9999 10.7618 14.7616 13 11.9999 13Z" fill="#898989"/>
<path d="M11.9998 10.9999C13.6567 10.9999 14.9998 9.6568 14.9998 7.99996C14.9998 6.34313 13.6567 5 11.9998 5C10.343 5 8.99988 6.34313 8.99988 7.99996C8.99988 9.6568 10.343 10.9999 11.9998 10.9999Z" fill="#898989"/>
</svg>
