<svg width="20" height="20" viewBox="0 0 20 20" fill="none" xmlns="http://www.w3.org/2000/svg">
<path d="M5.33333 4.33329V2.99996C5.33333 2.81588 5.18408 2.66663 5 2.66663H0.333333C0.149251 2.66663 0 2.81588 0 2.99996V4.33329H5.33333Z" fill="#898989"/>
<path d="M0 5V16H5.33333V5H0ZM4 9.33333H1.33333C1.14925 9.33333 1 9.18408 1 9V6.33333C1 6.14925 1.14925 6 1.33333 6H4C4.18408 6 4.33333 6.14925 4.33333 6.33333V9C4.33333 9.18408 4.18408 9.33333 4 9.33333Z" fill="#898989"/>
<path d="M0 18V19.6667C0 19.8507 0.149251 20 0.333333 20H5C5.18408 20 5.33333 19.8507 5.33333 19.6667V18H0Z" fill="#898989"/>
<path d="M0 16.6666H5.33333V17.3333H0V16.6666Z" fill="#898989"/>
<path d="M6 16.6666H10.3333V17.3333H6V16.6666Z" fill="#898989"/>
<path d="M10.3333 1.33333V0.333333C10.3333 0.149251 10.1841 0 10 0H6.33333C6.14925 0 6 0.149251 6 0.333333V1.33333H10.3333Z" fill="#898989"/>
<path d="M6 3.66663H10.3333V16H6V3.66663Z" fill="#898989"/>
<path d="M6 18V19.6667C6 19.8507 6.14925 20 6.33333 20H10C10.1841 20 10.3333 19.8507 10.3333 19.6667V18H6Z" fill="#898989"/>
<path d="M6 2H10.3333V3H6V2Z" fill="#898989"/>
<path d="M10.992 6.90271L11.1704 7.58744L16.8156 6.08207L16.6371 5.39734L10.992 6.90271Z" fill="#898989"/>
<path d="M13.7777 17.5811L19.4227 16.0757L19.0653 14.7054L13.4199 16.2108L13.7777 17.5811Z" fill="#898989"/>
<path d="M18.897 14.0604L16.9841 6.72705L11.3387 8.23242L13.2516 15.5658L18.897 14.0604Z" fill="#898989"/>
<path d="M10.8237 6.25761L16.4686 4.7524L15.9901 2.91662C15.9408 2.73889 15.7591 2.63261 15.5801 2.67671L10.5801 4.01005C10.4035 4.05839 10.2982 4.23922 10.3433 4.41662L10.8237 6.25761Z" fill="#898989"/>
<path d="M19.591 16.7207L13.9456 18.2261L14.3433 19.75C14.3664 19.8359 14.4227 19.9092 14.5 19.9535C14.5503 19.9839 14.6079 20 14.6667 20C14.6958 20 14.7249 19.9966 14.7533 19.9901L19.7533 18.6567C19.9299 18.6084 20.0352 18.4274 19.9901 18.25L19.591 16.7207Z" fill="#898989"/>
</svg>
