<svg width="16" height="14" viewBox="0 0 16 14" fill="none" xmlns="http://www.w3.org/2000/svg">
<path d="M15.078 6.44051L10.3592 3.65236C10.0554 3.47284 10.0537 3.03477 10.3592 2.85423L15.078 0.0660843C15.39 -0.118293 15.7867 0.105047 15.7867 0.46513V6.04146C15.7867 6.40309 15.3886 6.62405 15.078 6.44051V6.44051Z" fill="#898989"/>
<path d="M15.5312 7.46484H0.46875C0.209875 7.46484 0 7.67285 0 7.92943V9.78776C0 10.0443 0.209875 10.2523 0.46875 10.2523H15.5312C15.7901 10.2523 16 10.0443 16 9.78776V7.92943C16 7.67285 15.7901 7.46484 15.5312 7.46484Z" fill="#898989"/>
<path d="M15.5312 11.2125H0.46875C0.209875 11.2125 0 11.4205 0 11.6771V13.5354C0 13.792 0.209875 14 0.46875 14H15.5312C15.7901 14 16 13.792 16 13.5354V11.6771C16 11.4205 15.7901 11.2125 15.5312 11.2125Z" fill="#898989"/>
<path d="M8.90722 3.71716H0.46875C0.209875 3.71716 0 3.92517 0 4.18175V6.04008C0 6.29665 0.209875 6.50466 0.46875 6.50466H8.90722C9.16609 6.50466 9.37597 6.29665 9.37597 6.04008V4.18175C9.37597 3.92517 9.16609 3.71716 8.90722 3.71716Z" fill="#898989"/>
<path d="M8.90722 0.000610352H0.46875C0.209875 0.000610352 0 0.20862 0 0.465194V2.32353C0 2.5801 0.209875 2.78811 0.46875 2.78811H8.90722C9.16609 2.78811 9.37597 2.5801 9.37597 2.32353V0.465194C9.37597 0.20862 9.16609 0.000610352 8.90722 0.000610352Z" fill="#898989"/>
</svg>
