<svg width="26" height="22" viewBox="0 0 26 22" fill="none" xmlns="http://www.w3.org/2000/svg">
<path d="M13 10.7595C15.4572 10.7595 17.4494 8.35085 17.4494 5.37977C17.4494 2.40861 16.7953 0 13 0C9.2046 0 8.55056 2.40861 8.55056 5.37977C8.55063 8.35085 10.5428 10.7595 13 10.7595Z" fill="#fff"/>
<path d="M21.3941 18.7564C21.3118 13.5805 20.6327 12.1057 15.4364 11.1721C15.4364 11.1721 14.7048 12.0999 12.9999 12.0999C11.295 12.0999 10.5636 11.1721 10.5636 11.1721C5.42391 12.0955 4.70343 13.5485 4.60873 18.5882C4.60103 18.9997 4.59748 19.0213 4.59608 18.9735C4.59634 19.063 4.59675 19.2286 4.59675 19.5173C4.59675 19.5173 5.83391 21.9999 13 21.9999C20.166 21.9999 21.4033 19.5173 21.4033 19.5173C21.4033 19.3318 21.4035 19.2028 21.4036 19.1151C21.4022 19.1446 21.3993 19.0874 21.3941 18.7564Z" fill="#fff"/>
<path d="M19.1747 9.79896C21.1705 9.79896 22.7884 7.84274 22.7884 5.42966C22.7884 3.01651 22.2572 1.0603 19.1747 1.0603C18.6562 1.0603 18.21 1.11584 17.8262 1.2195C18.5382 2.52604 18.6357 4.11299 18.6357 5.37973C18.6357 6.814 18.2452 8.18335 17.5259 9.31715C18.0203 9.62449 18.5805 9.79896 19.1747 9.79896Z" fill="#fff"/>
<path d="M25.9923 16.2939C25.9253 12.0902 25.3739 10.8924 21.1535 10.1342C21.1535 10.1342 20.5594 10.8878 19.1747 10.8878C19.1174 10.8878 19.0619 10.886 19.0072 10.8836C19.887 11.2784 20.6874 11.8282 21.2768 12.6328C22.2958 14.0236 22.5301 15.8921 22.5784 18.6369C25.4178 18.0784 25.9997 16.9121 25.9997 16.9121C25.9997 16.7601 25.9997 16.6558 26 16.5845C25.9988 16.6096 25.9965 16.5647 25.9923 16.2939Z" fill="#fff"/>
<path d="M6.82542 9.79889C7.41966 9.79889 7.97974 9.62442 8.47432 9.31715C7.75505 8.18335 7.36448 6.814 7.36448 5.37973C7.36448 4.11292 7.46205 2.52598 8.17389 1.2195C7.79014 1.11584 7.34405 1.0603 6.82542 1.0603C3.74294 1.0603 3.21185 3.01651 3.21185 5.42966C3.21185 7.84268 4.82975 9.79889 6.82542 9.79889Z" fill="#fff"/>
<path d="M6.99261 10.8834C6.93809 10.8859 6.88257 10.8876 6.82518 10.8876C5.44048 10.8876 4.84638 10.134 4.84638 10.134C0.626115 10.8923 0.0745391 12.09 0.0077017 16.2938C0.00334857 16.5646 0.00113851 16.6095 0 16.5843C0.000133943 16.6556 0.000267885 16.7599 0.000267885 16.9119C0.000267885 16.9119 0.582249 18.0782 3.42143 18.6368C3.46998 15.8919 3.70412 14.0235 4.72322 12.6326C5.31257 11.8282 6.11281 11.2783 6.99261 10.8834Z" fill="#fff"/>
</svg>

