<svg width="24" height="22" viewBox="0 0 24 22" fill="none" xmlns="http://www.w3.org/2000/svg">
<path d="M22.4522 17.1564L17.9145 18.8701V6.76624C17.9145 4.99852 16.5194 3.56273 14.8018 3.56273H10.1254V2.9915L16.5382 0.571503C17.7607 0.108345 19.1221 0.756766 19.5683 2.01501L20.4084 4.3694L20.9709 5.94413L23.8548 14.0378C24.3048 15.2961 23.6748 16.6971 22.4522 17.1564V17.1564Z" fill="#898989"/>
<path d="M14.802 4.33203H10.1255V5.31238C10.1255 6.53589 9.15796 7.53168 7.9729 7.53168C6.765 7.53168 5.81654 6.52018 5.81654 5.31238V4.33203H2.36262C1.05755 4.33203 0 5.42045 0 6.76361V19.5661C0 20.9092 1.05755 21.9976 2.36262 21.9976H14.802C16.1071 21.9976 17.1646 20.9092 17.1646 19.5661V6.76361C17.1646 5.42045 16.1071 4.33203 14.802 4.33203ZM13.9154 19.1996H3.24804C3.04095 19.1996 2.87302 19.027 2.87302 18.8136C2.87302 18.6003 3.04095 18.4277 3.24804 18.4277H13.9154C14.1225 18.4277 14.2904 18.6003 14.2904 18.8136C14.2904 19.027 14.1225 19.1996 13.9154 19.1996ZM13.9154 16.0323H3.24804C3.04095 16.0323 2.87302 15.8597 2.87302 15.6464C2.87302 15.433 3.04095 15.2604 3.24804 15.2604H13.9154C14.1225 15.2604 14.2904 15.433 14.2904 15.6464C14.2904 15.8597 14.1225 16.0323 13.9154 16.0323ZM13.9154 12.8647H3.24804C3.04095 12.8647 2.87302 12.6921 2.87302 12.4787C2.87302 12.2654 3.04095 12.0928 3.24804 12.0928H13.9154C14.1225 12.0928 14.2904 12.2654 14.2904 12.4787C14.2904 12.6921 14.1225 12.8647 13.9154 12.8647Z" fill="#898989"/>
<path d="M9.3746 3.17533V5.31628C9.3746 6.11523 8.74757 6.76056 7.97128 6.76056C7.19945 6.76056 6.56758 6.11635 6.56758 5.31628V1.44467C6.56758 0.645333 7.19799 0 7.97128 0C8.74757 0 9.3746 0.645333 9.3746 1.44467V3.17533Z" fill="#898989"/>
</svg>
