<svg width="15" height="20" viewBox="0 0 15 20" fill="none" xmlns="http://www.w3.org/2000/svg">
<path d="M8.66731 0.500969L14.5164 6.56147C14.8388 6.8955 15 7.33324 15 7.77103C15 8.20881 14.8388 8.64655 14.5164 8.98058C13.8717 9.64854 12.8265 9.64854 12.1818 8.98058L9.15086 5.84011L9.15086 18.2895C9.15086 19.2342 8.41174 20 7.49999 20C6.58825 20 5.84912 19.2342 5.84912 18.2895L5.84912 5.84011L2.81823 8.98058C2.17351 9.64854 1.12825 9.64854 0.483537 8.98058C-0.16118 8.31252 -0.16118 7.22954 0.483537 6.56147L6.33267 0.500969C6.97734 -0.166991 8.02265 -0.166991 8.66731 0.500969Z" fill="#fff"/>
</svg>
