<svg width="22" height="22" viewBox="0 0 22 22" fill="none" xmlns="http://www.w3.org/2000/svg">
<path d="M7.42516 5.19761H10.3562V1.37231C9.17662 1.75312 8.13142 3.22273 7.42516 5.19761Z" fill="#898989"/>
<path d="M5.21589 11.6447H0C0.0803946 13.0169 0.442106 14.321 0.983383 15.5129H5.70032C5.4233 14.3266 5.25667 13.0237 5.21589 11.6447Z" fill="#898989"/>
<path d="M14.97 6.48706H11.6447V10.3553H15.4961C15.4511 8.97453 15.2678 7.66143 14.97 6.48706Z" fill="#898989"/>
<path d="M11.6447 1.37231V5.19761H14.5757C13.8695 3.22273 12.8242 1.75312 11.6447 1.37231Z" fill="#898989"/>
<path d="M16.7841 11.6448C16.7433 13.0238 16.5766 14.3267 16.2996 15.5131H21.0166C21.5578 14.3211 21.9195 13.0171 21.9999 11.6448H16.7841Z" fill="#898989"/>
<path d="M6.50403 11.6448C6.54897 13.0256 6.73228 14.3387 7.03005 15.5131H10.3554V11.6448H6.50403Z" fill="#898989"/>
<path d="M0.983383 6.48706C0.442106 7.67896 0.0803946 8.98304 0 10.3553H5.21589C5.25663 8.97634 5.4233 7.67337 5.70032 6.48706H0.983383Z" fill="#898989"/>
<path d="M7.03005 6.48706C6.73224 7.66143 6.54893 8.97453 6.50403 10.3553H10.3554V6.48706H7.03005Z" fill="#898989"/>
<path d="M7.42516 16.8025C8.13142 18.7774 9.17662 20.247 10.3562 20.6278V16.8025H7.42516Z" fill="#898989"/>
<path d="M1.67892 5.19759H6.06084C6.96855 2.40469 8.51891 0.403031 10.356 0.0351153V0C6.71577 0.213443 3.51038 2.27798 1.67892 5.19759Z" fill="#898989"/>
<path d="M15.9398 16.8025C15.0321 19.5954 13.4817 21.597 11.6447 21.965V22.0001C15.2849 21.7866 18.4903 19.7221 20.3217 16.8025H15.9398Z" fill="#898989"/>
<path d="M11.6447 0V0.0351153C13.4817 0.403031 15.0321 2.40469 15.9398 5.19759H20.3217C18.4903 2.27798 15.2849 0.213443 11.6447 0Z" fill="#898989"/>
<path d="M6.06084 16.8024H1.67892C3.51038 19.722 6.71577 21.7865 10.356 22V21.9648C8.51891 21.5969 6.96855 19.5953 6.06084 16.8024Z" fill="#898989"/>
<path d="M11.6447 16.8025V20.6278C12.8242 20.247 13.8695 18.7774 14.5757 16.8025H11.6447Z" fill="#898989"/>
<path d="M11.6447 11.6448V15.5131H14.97C15.2679 14.3387 15.4512 13.0256 15.4961 11.6448H11.6447Z" fill="#898989"/>
<path d="M21.0166 6.48706H16.2996C16.5766 7.67337 16.7433 8.97634 16.7841 10.3553H21.9999C21.9195 8.98304 21.5578 7.67896 21.0166 6.48706Z" fill="#898989"/>
</svg>
