<svg width="18" height="20" viewBox="0 0 18 20" fill="none" xmlns="http://www.w3.org/2000/svg">
<path d="M1.66785 18.4506C1.95543 19.3486 2.78966 20 3.77186 20H14.2288C15.211 20 16.0452 19.3486 16.3328 18.4506H1.66785Z" fill="#fff"/>
<path d="M15.792 3.21347L13.2198 0.646597C13.1137 0.540698 12.999 0.447339 12.8768 0.366089V3.54168C12.8768 3.61394 12.9359 3.67257 13.0084 3.67257H16.1456C16.05 3.50648 15.9314 3.35257 15.792 3.21347Z" fill="#fff"/>
<path d="M16.4398 4.84465H13.0086C12.2883 4.84465 11.7026 4.26016 11.7026 3.54168V0.00078125C11.6873 0 11.6716 0 11.6564 0H3.7714C2.55224 0 1.56018 0.990039 1.56018 2.20703V8.22649H16.4398L16.4398 4.84465Z" fill="#fff"/>
<path d="M9.01237 11.9397C8.65425 11.9397 8.47528 12.1405 8.47528 12.5419V14.1378C8.47528 14.5393 8.65425 14.74 9.01237 14.74C9.37445 14.74 9.55549 14.5393 9.55549 14.1378V12.5419C9.55545 12.1405 9.37441 11.9397 9.01237 11.9397Z" fill="#fff"/>
<path d="M16.5163 9.39868H1.48374C0.665598 9.39868 0 10.0629 0 10.8793V15.7978C0 16.6142 0.665598 17.2784 1.48374 17.2784H16.5162C17.3344 17.2784 18 16.6142 18 15.7978V10.8793C18 10.0629 17.3344 9.39868 16.5163 9.39868ZM6.98475 14.1017C6.98475 14.5915 6.8499 14.9508 6.58043 15.1796C6.31085 15.4084 5.95077 15.5229 5.50027 15.5229H4.43215C4.31144 15.5229 4.21283 15.4948 4.13646 15.4386C4.06002 15.3824 4.02177 15.3161 4.02177 15.2398V11.4038C4.02177 11.3275 4.05998 11.2613 4.13646 11.205C4.21283 11.1489 4.31147 11.1208 4.43215 11.1208H5.50027C5.95077 11.1208 6.31089 11.2352 6.58043 11.464C6.8499 11.6929 6.98475 12.0522 6.98475 12.542V14.1017ZM10.4969 14.1378C10.4969 14.6276 10.362 14.9869 10.0926 15.2157C9.82302 15.4445 9.46289 15.559 9.01239 15.559C8.56584 15.559 8.20771 15.4445 7.93825 15.2157C7.66867 14.9869 7.53393 14.6276 7.53393 14.1378V12.5419C7.53393 12.0522 7.66867 11.6928 7.93825 11.464C8.20771 11.2352 8.56584 11.1207 9.01239 11.1207C9.46289 11.1207 9.82302 11.2352 10.0926 11.464C10.362 11.6928 10.4969 12.0522 10.4969 12.5419V14.1378V14.1378ZM12.5425 14.74C12.6551 14.74 12.7486 14.722 12.8231 14.6858C12.8975 14.6497 12.9508 14.5946 12.983 14.5202C13.0151 14.446 13.0363 14.3847 13.0464 14.3365C13.0564 14.2884 13.0654 14.2221 13.0735 14.1378C13.0896 13.9492 13.2445 13.8548 13.5382 13.8548C13.7111 13.8548 13.8339 13.8859 13.9063 13.9481C13.9787 14.0104 14.0149 14.1278 14.0149 14.3004C14.0149 14.6899 13.873 14.997 13.5894 15.2218C13.3058 15.4467 12.9427 15.559 12.5002 15.559C12.0697 15.559 11.7207 15.4446 11.4532 15.2158C11.1856 14.9869 11.0519 14.6277 11.0519 14.1378V12.542C11.0519 12.0522 11.1856 11.6929 11.4532 11.464C11.7207 11.2352 12.0697 11.1208 12.5002 11.1208C12.9427 11.1208 13.3058 11.2272 13.5894 11.4399C13.873 11.6528 14.0149 11.9458 14.0149 12.3192C14.0149 12.4918 13.9787 12.6092 13.9063 12.6715C13.8339 12.7337 13.7132 12.7648 13.5442 12.7648C13.2425 12.7648 13.0856 12.6705 13.0735 12.4817C13.0614 12.1204 12.8824 11.9397 12.5364 11.9397C12.1743 11.9397 11.9933 12.1406 11.9933 12.542V14.1378C11.9934 14.5393 12.1764 14.74 12.5425 14.74Z" fill="#fff"/>
<path d="M5.49992 11.9397H4.96283V14.7038H5.49992C5.862 14.7038 6.04304 14.5031 6.04304 14.1016V12.5419C6.04304 12.1405 5.862 11.9397 5.49992 11.9397Z" fill="#fff"/>
</svg>

