<svg width="22" height="22" viewBox="0 0 22 22" fill="none" xmlns="http://www.w3.org/2000/svg">
<path d="M8.89758 16.1651L3.68156 21.3822C3.27093 21.7785 2.72258 22 2.15197 22C1.58136 22 1.03301 21.7785 0.622376 21.3822C0.223342 20.973 0 20.424 0 19.8523C0 19.2806 0.223342 18.7316 0.622376 18.3224L5.8384 13.1052C6.20489 13.7627 6.67126 14.3593 7.22083 14.8736C7.35207 14.9998 8.77925 16.2834 8.89758 16.1651Z" fill="#898989"/>
<path d="M13.93 0C11.7905 0.00242764 9.73937 0.8536 8.22651 2.36678C6.71366 3.87996 5.86267 5.93158 5.86024 8.07154C5.88854 10.2034 6.74784 12.2401 8.25513 13.7477C9.76242 15.2553 11.7986 16.1148 13.93 16.1431C16.0703 16.1431 18.1229 15.2927 19.6362 13.779C21.1496 12.2653 21.9998 10.2122 21.9998 8.07154C21.9998 5.93084 21.1496 3.87781 19.6362 2.3641C18.1229 0.850392 16.0703 0 13.93 0V0ZM16.1309 8.80532H14.6637V10.2729C14.6637 10.4675 14.5864 10.6541 14.4488 10.7917C14.3112 10.9293 14.1246 11.0066 13.93 11.0066C13.7355 11.0066 13.5489 10.9293 13.4113 10.7917C13.2737 10.6541 13.1964 10.4675 13.1964 10.2729V8.80532H11.7292C11.5346 8.80532 11.348 8.72801 11.2104 8.5904C11.0729 8.45279 10.9956 8.26615 10.9956 8.07154C10.9956 7.87693 11.0729 7.69029 11.2104 7.55268C11.348 7.41507 11.5346 7.33777 11.7292 7.33777H13.1964V5.87021C13.1964 5.6756 13.2737 5.48896 13.4113 5.35135C13.5489 5.21374 13.7355 5.13644 13.93 5.13644C14.1246 5.13644 14.3112 5.21374 14.4488 5.35135C14.5864 5.48896 14.6637 5.6756 14.6637 5.87021V7.33777H16.1309C16.3255 7.33777 16.5121 7.41507 16.6496 7.55268C16.7872 7.69029 16.8645 7.87693 16.8645 8.07154C16.8645 8.26615 16.7872 8.45279 16.6496 8.5904C16.5121 8.72801 16.3255 8.80532 16.1309 8.80532Z" fill="#898989"/>
</svg>
