<svg width="20" height="20" viewBox="0 0 20 20" fill="none" xmlns="http://www.w3.org/2000/svg">
<path d="M15.611 11.2493C15.3151 11.5452 15.3168 12.0252 15.6143 12.3227L15.8835 12.5918C15.9326 12.641 15.9335 12.7218 15.8843 12.771C15.8351 12.8202 15.7551 12.8202 15.7051 12.7702L15.0776 12.1427C14.7801 11.8452 14.3001 11.8443 14.0043 12.1393C13.7085 12.4352 13.7101 12.9152 14.0076 13.2127L14.6351 13.8402C14.6843 13.8894 14.6851 13.9702 14.636 14.0194C14.5868 14.0685 14.5068 14.0685 14.4568 14.0185L13.4701 13.0318C13.1726 12.7343 12.6926 12.7335 12.3968 13.0285C12.1009 13.3243 12.1026 13.8044 12.4001 14.1019L13.3868 15.0885C13.436 15.1377 13.4368 15.2185 13.3876 15.2677C13.3385 15.3169 13.2585 15.3169 13.2085 15.2669L9.71093 11.7693C9.41343 11.4718 8.93342 11.471 8.63759 11.766C8.34175 12.0618 8.34342 12.5418 8.64092 12.8393L12.8501 17.0485C12.2984 16.9627 11.3701 16.926 10.8001 17.4952C10.2651 18.0302 10.2793 18.4002 10.4451 18.5669C10.8976 19.0194 11.2459 18.3044 13.3076 19.2894C15.3693 20.2752 16.6943 20.1936 17.6002 19.3027L18.8485 18.0544C18.8552 18.0477 18.8418 18.0611 18.8485 18.0544C20.1177 16.7852 20.481 15.0502 19.2002 13.7702C19.1977 13.7677 19.196 13.766 19.1935 13.7635L16.6826 11.2527C16.3868 10.9552 15.9068 10.9543 15.611 11.2493V11.2493Z" fill="#7B7B7B"/>
<path d="M15.8335 0H2.50002C1.11918 0 0 1.11918 0 2.50002C0 3.88086 1.11918 5.00004 2.50002 5.00004H15.8335C17.2143 5.00004 18.3335 3.88086 18.3335 2.50002C18.3335 1.11918 17.2143 0 15.8335 0ZM2.50002 3.33336C2.04002 3.33336 1.66668 2.96002 1.66668 2.50002C1.66668 2.04002 2.04002 1.66668 2.50002 1.66668C2.96002 1.66668 3.33336 2.04002 3.33336 2.50002C3.33336 2.96002 2.96002 3.33336 2.50002 3.33336ZM5.83338 3.33336C5.37338 3.33336 5.00004 2.96002 5.00004 2.50002C5.00004 2.04002 5.37338 1.66668 5.83338 1.66668C6.29338 1.66668 6.66672 2.04002 6.66672 2.50002C6.66672 2.96002 6.29338 3.33336 5.83338 3.33336Z" fill="#7B7B7B"/>
<path d="M15.8335 6.66663H2.50002C1.11668 6.66663 0 7.7833 0 9.16665C0 10.55 1.11668 11.6667 2.50002 11.6667H6.83339C6.94172 11.2667 7.15839 10.8917 7.45839 10.5917C8.4084 9.64165 9.94174 9.64165 10.8918 10.5917L11.7501 11.45C12.0251 11.2917 12.3334 11.1917 12.6501 11.1583C12.9843 10.7133 13.5659 10.3542 14.2584 10.2667C14.9843 9.29831 16.6376 8.84581 18.0668 10.275C18.2418 9.94165 18.3335 9.56665 18.3335 9.16665C18.3335 7.7833 17.2168 6.66663 15.8335 6.66663ZM2.50002 9.99999C2.04168 9.99999 1.66668 9.62498 1.66668 9.16665C1.66668 8.70831 2.04168 8.33331 2.50002 8.33331C2.95836 8.33331 3.33336 8.70831 3.33336 9.16665C3.33336 9.62498 2.95836 9.99999 2.50002 9.99999ZM5.83338 9.99999C5.37504 9.99999 5.00004 9.62498 5.00004 9.16665C5.00004 8.70831 5.37504 8.33331 5.83338 8.33331C6.29172 8.33331 6.66672 8.70831 6.66672 9.16665C6.66672 9.62498 6.29172 9.99999 5.83338 9.99999Z" fill="#7B7B7B"/>
<path d="M7.46672 14.0168C7.26672 13.8168 7.10006 13.5835 6.98339 13.3335H2.50002C1.11668 13.3335 0 14.4502 0 15.8335C0 17.2169 1.11668 18.3335 2.50002 18.3335H8.67507C8.67507 17.5002 9.25091 16.5435 9.69174 16.2502L7.46672 14.0168ZM2.50002 16.6669C2.04168 16.6669 1.66668 16.2919 1.66668 15.8335C1.66668 15.3752 2.04168 15.0002 2.50002 15.0002C2.95836 15.0002 3.33336 15.3752 3.33336 15.8335C3.33336 16.2919 2.95836 16.6669 2.50002 16.6669ZM5.83338 16.6669C5.37504 16.6669 5.00004 16.2919 5.00004 15.8335C5.00004 15.3752 5.37504 15.0002 5.83338 15.0002C6.29172 15.0002 6.66672 15.3752 6.66672 15.8335C6.66672 16.2919 6.29172 16.6669 5.83338 16.6669V16.6669Z" fill="#7B7B7B"/>
</svg>
