<svg width="16" height="20" viewBox="0 0 16 20" fill="none" xmlns="http://www.w3.org/2000/svg">
<path d="M16 13.4483V4.82C16 4.55586 15.9673 4.36034 15.8044 4.20207L11.6668 0.189655C11.5428 0.0693103 11.3707 0 11.1947 0H0.875733C0.454045 0 0 0.315862 0 1.00897V13.4483H16ZM11.0222 1.16931C11.0222 1.01138 11.2188 0.932414 11.334 1.04414L14.9234 4.52517C15.0386 4.6369 14.9572 4.82759 14.7943 4.82759H11.0222V1.16931ZM10.0597 6.45069C9.92071 6.31586 9.92071 6.09793 10.0597 5.9631C10.1988 5.82828 10.4235 5.82828 10.5625 5.9631L12.6958 8.03207C12.8348 8.1669 12.8348 8.38483 12.6958 8.51966L10.5625 10.5886C10.4932 10.6559 10.4021 10.6897 10.3111 10.6897C10.2201 10.6897 10.1291 10.6559 10.0597 10.5886C9.92071 10.4538 9.92071 10.2359 10.0597 10.101L11.9417 8.27586L10.0597 6.45069ZM3.65973 8.03207L5.79307 5.9631C5.93209 5.82828 6.1568 5.82828 6.29582 5.9631C6.43484 6.09793 6.43484 6.31586 6.29582 6.45069L4.41387 8.27586L6.29582 10.101C6.43484 10.2359 6.43484 10.4538 6.29582 10.5886C6.22649 10.6559 6.13547 10.6897 6.04444 10.6897C5.95342 10.6897 5.8624 10.6559 5.79307 10.5886L3.65973 8.51966C3.52071 8.38483 3.52071 8.1669 3.65973 8.03207Z" fill="#898989"/>
<path d="M0 14.1379V19.3104C0 19.6583 0.433778 20 0.875733 20H15.1243C15.5662 20 16 19.6583 16 19.3104V14.1379H0ZM4.25067 18.6207H3.6672V17.0555H2.11662V18.6207H1.52356V15.1462H2.11662V16.669H3.6672V15.1462H4.25067V18.6207ZM7.68249 15.5328H6.61333V18.6207H6.02524V15.5328H4.95573V15.1462H7.68284V15.5328H7.68249ZM11.6882 18.6207H11.0951V16.2304L10.293 18.1631H9.77778L8.97067 16.2304V18.6207H8.3776V15.1462H8.97067L10.0352 17.5224L11.0948 15.1462H11.6878V18.6207H11.6882ZM14.8284 18.6207H12.5874V15.1462H13.1804V18.1917H14.8284V18.6207Z" fill="#898989"/>
</svg>
