<svg width="19" height="22" viewBox="0 0 19 22" fill="none" xmlns="http://www.w3.org/2000/svg">
<path d="M6.65812 8.64301C5.71623 8.64301 4.95268 7.85152 4.95268 6.87516C4.95268 5.8988 5.71623 5.1073 6.65812 5.1073C7.60001 5.1073 8.36356 5.8988 8.36356 6.87516C8.36356 7.85152 7.60001 8.64301 6.65812 8.64301Z" fill="#898989"/>
<path d="M13.6694 11.7858C13.2507 11.7858 12.9114 11.434 12.9114 11.0001C12.9114 10.5661 13.2507 10.2144 13.6694 10.2144C14.088 10.2144 14.4274 10.5661 14.4274 11.0001C14.4274 11.434 14.088 11.7858 13.6694 11.7858Z" fill="#898989"/>
<path d="M14.0521 6.67468C13.8449 6.4598 13.845 6.11158 14.0523 5.89682C14.2596 5.68211 14.5956 5.68219 14.8027 5.89699C15.0099 6.11184 15.0099 6.46005 14.8027 6.67485C14.5951 6.88905 14.2595 6.88897 14.0521 6.67468Z" fill="#898989"/>
<path d="M0.370074 5.15561C0.705832 3.96357 1.40976 2.91875 2.3738 2.18158C4.35793 0.567934 6.19809 -0.0996262 8.34321 0.0122211C9.53908 0.0989317 10.7273 0.275619 11.8984 0.540907C13.4495 0.864503 14.5606 1.41235 15.2949 2.21574C15.8944 2.87874 16.357 3.66163 16.6543 4.51649C16.7837 4.90368 16.889 5.29908 16.9696 5.70023L17.0018 5.84353C17.0917 6.19824 17.2148 6.54298 17.3693 6.87285C17.4415 7.04068 17.5144 7.20834 17.5766 7.37962C17.6152 7.46629 17.6359 7.56039 17.6373 7.65586C17.621 7.77635 17.4763 7.91367 17.3231 8.05908C17.0091 8.28772 16.8065 8.64659 16.7679 9.04237C16.7741 9.22993 16.8251 9.41298 16.9163 9.5751C17.3901 10.6099 17.9707 11.5884 18.648 12.4935C18.9397 12.8624 18.9989 13.0061 19 13.0652C18.9302 13.1332 18.8556 13.1959 18.7768 13.2526C18.6771 13.3246 18.5717 13.3879 18.4619 13.4418C18.1377 13.6132 17.6935 13.8479 17.6051 14.3295C17.5499 14.6263 17.5855 14.9335 17.7068 15.2083C17.7716 15.3493 17.8382 15.4722 17.8963 15.5789C17.9163 15.6152 17.9381 15.6552 17.9574 15.6918C17.8016 15.8208 17.585 15.989 17.494 16.0586C17.4117 16.1217 17.3575 16.2165 17.3437 16.3216C17.33 16.4267 17.3579 16.5332 17.4211 16.6166C17.4771 16.6926 17.5257 16.7741 17.5661 16.86C17.5395 16.8763 17.5121 16.8924 17.4851 16.9084C17.1503 17.0582 16.8953 17.3519 16.7867 17.7127C16.7321 17.9912 16.7442 18.2794 16.8219 18.5519C16.8393 18.6333 16.857 18.7146 16.8674 18.7959C16.8893 19.0313 16.858 19.2687 16.776 19.4894C16.695 19.8546 16.3493 20.0877 15.9943 20.0163C14.8922 19.7376 13.8053 19.3975 12.7385 18.9973L12.7363 18.9966C12.3703 18.8669 12.0357 18.7455 11.764 18.6469C11.4698 18.5399 11.2474 18.4595 11.1356 18.4228C9.56081 17.9105 9.24142 17.3204 9.25067 16.9157C9.25556 16.6987 9.08988 16.5187 8.88054 16.5136C8.67126 16.5086 8.49757 16.6803 8.49268 16.8973C8.47046 17.8783 9.28321 18.6437 10.9079 19.1723C11.0156 19.2074 11.2296 19.2853 11.5134 19.3883C11.6008 19.4201 11.6948 19.4543 11.794 19.4902C11.1676 20.2087 10.7103 21.0678 10.4579 22.0002H1.82374C1.82855 21.9929 1.83373 21.9857 1.83891 21.9786C1.96923 21.8051 2.08431 21.6198 2.18275 21.425C2.37003 21.0268 2.52717 20.6142 2.65277 20.1908C2.88291 19.3872 3.04188 18.5636 3.1276 17.7301C3.27795 16.4161 3.0869 15.0844 2.57426 13.8727C2.27092 13.2184 1.89682 12.6021 1.45913 12.0354C1.23857 11.7273 1.01054 11.4089 0.81257 11.0855C0.289783 10.2444 0.00878162 9.26641 0.00239808 8.26584C-0.0191568 7.21608 0.104618 6.16872 0.370074 5.15561ZM16.2113 6.56364C16.2824 6.48995 16.3223 6.39001 16.3223 6.28581C16.3223 6.18161 16.2824 6.08167 16.2113 6.00797C16.1402 5.93428 16.0438 5.8929 15.9433 5.89295H15.6532C15.6299 5.81414 15.5994 5.73779 15.5621 5.66491L15.7671 5.4523C15.8628 5.35305 15.9002 5.20841 15.8651 5.07289C15.8301 4.93733 15.7279 4.83145 15.5972 4.79514C15.4664 4.75883 15.3269 4.79759 15.2312 4.89681L15.0256 5.11006C14.9555 5.07169 14.8821 5.04015 14.8063 5.01596V4.7144C14.8063 4.49746 14.6366 4.32154 14.4273 4.32154C14.218 4.32154 14.0483 4.49741 14.0483 4.7144V5.01591C13.9725 5.04015 13.8991 5.07165 13.829 5.11002L13.6234 4.89681C13.5277 4.79755 13.3882 4.75883 13.2574 4.79514C13.1266 4.83145 13.0245 4.93733 12.9895 5.07289C12.9544 5.20846 12.9918 5.35309 13.0876 5.4523L13.2925 5.66491C13.2553 5.73779 13.2248 5.8141 13.2014 5.89295H12.9113C12.7021 5.89295 12.5323 6.06882 12.5323 6.28581C12.5323 6.50276 12.702 6.67867 12.9113 6.67867H13.2014C13.2248 6.75747 13.2553 6.83383 13.2925 6.90671L13.0876 7.11931C12.9396 7.27271 12.9396 7.52141 13.0876 7.67485C13.2355 7.82825 13.4755 7.82825 13.6235 7.67485L13.8291 7.46169C13.8992 7.5001 13.9726 7.53164 14.0484 7.55587V7.8573C14.0484 8.07425 14.218 8.25016 14.4273 8.25016C14.6366 8.25016 14.8063 8.07429 14.8063 7.8573V7.55587C14.8821 7.53164 14.9556 7.5001 15.0257 7.46169L15.2312 7.67485C15.3792 7.82825 15.6191 7.82825 15.7671 7.67485C15.9151 7.52146 15.9151 7.27275 15.7671 7.11931L15.5622 6.90675C15.5994 6.83387 15.6299 6.75752 15.6533 6.67871H15.9434C16.0438 6.67871 16.1402 6.63733 16.2113 6.56364ZM11.7744 11.393H12.2073C12.2426 11.5336 12.2968 11.6684 12.3683 11.7934L12.0617 12.1114C11.9659 12.2106 11.9286 12.3553 11.9636 12.4908C11.9986 12.6263 12.1008 12.7322 12.2315 12.7685C12.3623 12.8048 12.5018 12.7661 12.5976 12.6669L12.9042 12.3489C13.0248 12.4229 13.1547 12.4791 13.2904 12.5157V12.9644C13.2904 13.1813 13.46 13.3572 13.6694 13.3572C13.8787 13.3572 14.0484 13.1814 14.0484 12.9644V12.5157C14.184 12.4791 14.314 12.4229 14.4346 12.3489L14.7412 12.6669C14.8368 12.7664 14.9765 12.8053 15.1075 12.7691C15.2384 12.7328 15.3407 12.6268 15.3757 12.491C15.4107 12.3553 15.3731 12.2105 15.2771 12.1113L14.9705 11.7934C15.042 11.6684 15.0962 11.5336 15.1315 11.393H15.5643C15.7736 11.393 15.9433 11.2171 15.9433 11.0001C15.9433 10.7832 15.7737 10.6072 15.5643 10.6072H15.1315C15.0962 10.4666 15.042 10.3318 14.9705 10.2068L15.2771 9.88886C15.3731 9.78968 15.4107 9.64488 15.3757 9.50914C15.3407 9.3734 15.2384 9.2674 15.1075 9.23109C14.9765 9.19483 14.8369 9.2338 14.7412 9.33331L14.4346 9.65128C14.314 9.57725 14.184 9.52109 14.0484 9.48443V9.0358C14.0484 8.81885 13.8787 8.64294 13.6694 8.64294C13.4601 8.64294 13.2904 8.81881 13.2904 9.0358V9.48443C13.1547 9.52109 13.0248 9.57725 12.9042 9.65128L12.5976 9.33331C12.5018 9.2341 12.3623 9.19534 12.2315 9.23165C12.1008 9.26796 11.9986 9.37388 11.9636 9.5094C11.9286 9.64496 11.966 9.7896 12.0617 9.88881L12.3683 10.2067C12.2968 10.3317 12.2426 10.4666 12.2073 10.6072H11.7744C11.5652 10.6072 11.3955 10.7831 11.3955 11.0001C11.3955 11.2171 11.5651 11.393 11.7744 11.393ZM1.24649 7.85859C1.27873 8.04597 1.43592 8.1824 1.61955 8.1824H2.40526C2.49252 8.4898 2.61128 8.78662 2.75947 9.06785L2.20356 9.64411C2.07365 9.77873 2.05554 9.99052 2.16062 10.1467C2.52498 10.6886 2.97908 11.1593 3.50187 11.537C3.65254 11.6458 3.85673 11.6271 3.98668 11.4927L4.54259 10.9164C4.81402 11.0701 5.10049 11.1932 5.39716 11.2836V12.0983C5.39728 12.2886 5.52885 12.4515 5.70954 12.485C6.33703 12.6003 6.9792 12.6003 7.6067 12.485C7.78738 12.4515 7.91895 12.2886 7.91907 12.0983V11.2836C8.21574 11.1932 8.50222 11.0701 8.77364 10.9164L9.32955 11.4927C9.45954 11.6271 9.66373 11.6458 9.81437 11.537C10.3372 11.1593 10.7913 10.6886 11.1556 10.1467C11.2607 9.99048 11.2426 9.77868 11.1127 9.64411L10.5568 9.06785C10.705 8.78662 10.8237 8.4898 10.911 8.1824H11.6967C11.8803 8.18244 12.0375 8.04597 12.0697 7.85859C12.1813 7.20804 12.1813 6.5422 12.0697 5.89161C12.0375 5.70423 11.8803 5.5678 11.6967 5.5678H10.911C10.8237 5.26041 10.705 4.96358 10.5568 4.68235L11.1127 4.1061C11.2426 3.97148 11.2607 3.75968 11.1556 3.60354C10.7913 3.06162 10.3372 2.5909 9.81437 2.2132C9.66381 2.10393 9.45933 2.12262 9.32955 2.2575L8.77364 2.83375C8.50222 2.68014 8.21574 2.55704 7.91907 2.46659V1.65195C7.91899 1.46168 7.78738 1.29879 7.6067 1.26523C6.97916 1.1505 6.33707 1.1505 5.70954 1.26523C5.52885 1.29879 5.39728 1.46168 5.39716 1.65195V2.46663C5.10049 2.55708 4.81402 2.68014 4.54259 2.8338L3.98668 2.25755C3.85694 2.12262 3.65238 2.10393 3.50187 2.21324C2.97908 2.59094 2.52498 3.06166 2.16062 3.60358C2.05554 3.75977 2.07361 3.97156 2.20356 4.10614L2.75947 4.68239C2.61128 4.96362 2.49256 5.26045 2.40526 5.56785H1.61955C1.43592 5.5678 1.27873 5.70427 1.24649 5.89166C1.13494 6.5422 1.13494 7.20804 1.24649 7.85859Z" fill="#898989"/>
<path d="M2.69914 6.35348C2.87709 6.35353 3.03108 6.22518 3.06926 6.04501C3.16012 5.61421 3.32431 5.2036 3.55408 4.83248C3.6507 4.67715 3.62956 4.47296 3.50338 4.34238L2.97156 3.79109C3.18226 3.51936 3.42077 3.27212 3.68291 3.05371L4.21473 3.60483C4.3407 3.73541 4.53739 3.75745 4.68736 3.65776C5.04551 3.41929 5.44178 3.24896 5.85762 3.15482C6.03139 3.1152 6.15516 2.95561 6.15521 2.77115V1.99239C6.48955 1.95517 6.8268 1.95517 7.16115 1.99239V2.77119C7.16115 2.95561 7.28497 3.1152 7.45873 3.15486C7.87458 3.24905 8.27085 3.41937 8.629 3.65781C8.77888 3.75788 8.97582 3.73579 9.10163 3.60487L9.63345 3.0538C9.89559 3.27221 10.1341 3.51945 10.3448 3.79118L9.81298 4.34247C9.6868 4.47305 9.66566 4.67724 9.76228 4.83257C9.99205 5.20369 10.1562 5.6143 10.2471 6.0451C10.2853 6.22527 10.4393 6.35361 10.6172 6.35357H11.3685C11.4046 6.70028 11.4046 7.05 11.3685 7.39672H10.6172C10.4393 7.39668 10.2853 7.52502 10.2471 7.70519C10.1562 8.13599 9.99205 8.5466 9.76228 8.91772C9.66566 9.07305 9.6868 9.27724 9.81298 9.40782L10.3448 9.95907C10.1341 10.2308 9.89559 10.478 9.63345 10.6964L9.10163 10.1453C8.97586 10.0143 8.77888 9.99228 8.629 10.0924C8.27085 10.3309 7.87458 10.5012 7.45873 10.5953C7.28497 10.635 7.16119 10.7945 7.16115 10.979V11.7578C6.8268 11.795 6.48955 11.795 6.15521 11.7578V10.979C6.15521 10.7946 6.03139 10.635 5.85767 10.5953C5.44182 10.5012 5.04551 10.3308 4.68741 10.0924C4.53743 9.99267 4.34075 10.0147 4.21477 10.1453L3.68295 10.6964C3.42081 10.478 3.1823 10.2308 2.9716 9.95907L3.50342 9.40778C3.6296 9.2772 3.65074 9.07301 3.55412 8.91768C3.32435 8.54656 3.16016 8.13595 3.0693 7.70515C3.03112 7.52498 2.87713 7.39663 2.69918 7.39668H1.94787C1.91185 7.04996 1.91185 6.70024 1.94787 6.35353H2.69914V6.35348ZM6.65814 9.42862C8.01862 9.42862 9.12156 8.28535 9.12156 6.87504C9.12156 5.46476 8.01866 4.32146 6.65814 4.32146C5.29761 4.32146 4.19471 5.46472 4.19471 6.87504C4.19633 8.28466 5.29832 9.42698 6.65814 9.42862Z" fill="#898989"/>
</svg>
