<svg width="22" height="22" viewBox="0 0 22 22" fill="none" xmlns="http://www.w3.org/2000/svg">
<path d="M19.6367 9.71094C19.6367 10.0669 19.9253 10.3555 20.2812 10.3555C20.6372 10.3555 20.9258 10.0669 20.9258 9.71094V8.42188C20.9258 8.06592 20.6372 7.77734 20.2812 7.77734C19.9253 7.77734 19.6367 8.06592 19.6367 8.42188V9.71094Z" fill="#FFf"/>
<path d="M19.6367 13.5781C19.6367 13.9341 19.9253 14.2227 20.2812 14.2227C20.6372 14.2227 20.9258 13.9341 20.9258 13.5781V12.2891C20.9258 11.9331 20.6372 11.6445 20.2812 11.6445C19.9253 11.6445 19.6367 11.9331 19.6367 12.2891V13.5781Z" fill="#fff"/>
<path d="M1.07422 9.71094C1.07422 10.0669 1.3628 10.3555 1.71875 10.3555C2.0747 10.3555 2.36328 10.0669 2.36328 9.71094V8.42188C2.36328 8.06592 2.0747 7.77734 1.71875 7.77734C1.3628 7.77734 1.07422 8.06592 1.07422 8.42188V9.71094Z" fill="#fff"/>
<path d="M1.07422 13.5781C1.07422 13.9341 1.3628 14.2227 1.71875 14.2227C2.0747 14.2227 2.36328 13.9341 2.36328 13.5781V12.2891C2.36328 11.9331 2.0747 11.6445 1.71875 11.6445C1.3628 11.6445 1.07422 11.9331 1.07422 12.2891V13.5781Z" fill="#fff"/>
<path d="M8.42188 2.36328H9.71094C10.0669 2.36328 10.3555 2.0747 10.3555 1.71875C10.3555 1.3628 10.0669 1.07422 9.71094 1.07422H8.42188C8.06592 1.07422 7.77734 1.3628 7.77734 1.71875C7.77734 2.0747 8.06592 2.36328 8.42188 2.36328Z" fill="#fff"/>
<path d="M12.2891 2.36328H13.5781C13.9341 2.36328 14.2227 2.0747 14.2227 1.71875C14.2227 1.3628 13.9341 1.07422 13.5781 1.07422H12.2891C11.9331 1.07422 11.6445 1.3628 11.6445 1.71875C11.6445 2.0747 11.9331 2.36328 12.2891 2.36328Z" fill="#fff"/>
<path d="M9.71094 19.6367H8.42188C8.06592 19.6367 7.77734 19.9253 7.77734 20.2812C7.77734 20.6372 8.06592 20.9258 8.42188 20.9258H9.71094C10.0669 20.9258 10.3555 20.6372 10.3555 20.2812C10.3555 19.9253 10.0669 19.6367 9.71094 19.6367Z" fill="#fff"/>
<path d="M13.5781 19.6367H12.2891C11.9331 19.6367 11.6445 19.9253 11.6445 20.2812C11.6445 20.6372 11.9331 20.9258 12.2891 20.9258H13.5781C13.9341 20.9258 14.2227 20.6372 14.2227 20.2812C14.2227 19.9253 13.9341 19.6367 13.5781 19.6367Z" fill="#fff"/>
<path d="M16.3711 8.63672V6.05859C16.3711 5.70264 16.0825 5.41406 15.7266 5.41406H6.27344C5.91748 5.41406 5.62891 5.70264 5.62891 6.05859V8.63672C5.62891 8.99267 5.91748 9.28125 6.27344 9.28125C6.62939 9.28125 6.91797 8.99267 6.91797 8.63672V7.99219H9.71094V15.9414H9.06641C8.71045 15.9414 8.42188 16.23 8.42188 16.5859C8.42188 16.9419 8.71045 17.2305 9.06641 17.2305H12.9336C13.2895 17.2305 13.5781 16.9419 13.5781 16.5859C13.5781 16.23 13.2895 15.9414 12.9336 15.9414H12.2891V7.99219H15.082V8.63672C15.082 8.99267 15.3706 9.28125 15.7266 9.28125C16.0825 9.28125 16.3711 8.99267 16.3711 8.63672Z" fill="#fff"/>
<path d="M21.3555 0H19.207C18.8511 0 18.5625 0.288578 18.5625 0.644531V2.79297C18.5625 3.14892 18.8511 3.4375 19.207 3.4375H21.3555C21.7114 3.4375 22 3.14892 22 2.79297V0.644531C22 0.288578 21.7114 0 21.3555 0Z" fill="#fff"/>
<path d="M2.79297 0H0.644531C0.288578 0 0 0.288578 0 0.644531V2.79297C0 3.14892 0.288578 3.4375 0.644531 3.4375H2.79297C3.14892 3.4375 3.4375 3.14892 3.4375 2.79297V0.644531C3.4375 0.288578 3.14892 0 2.79297 0Z" fill="#fff"/>
<path d="M21.3555 18.5625H19.207C18.8511 18.5625 18.5625 18.8511 18.5625 19.207V21.3555C18.5625 21.7114 18.8511 22 19.207 22H21.3555C21.7114 22 22 21.7114 22 21.3555V19.207C22 18.8511 21.7114 18.5625 21.3555 18.5625Z" fill="#fff"/>
<path d="M20.2812 6.48828C20.6372 6.48828 20.9258 6.1997 20.9258 5.84375V4.72656H19.6367V5.84375C19.6367 6.1997 19.9253 6.48828 20.2812 6.48828Z" fill="#fff"/>
<path d="M1.71875 6.48828C2.0747 6.48828 2.36328 6.1997 2.36328 5.84375V4.72656H1.07422V5.84375C1.07422 6.1997 1.3628 6.48828 1.71875 6.48828Z" fill="#fff"/>
<path d="M15.5117 1.71875C15.5117 2.0747 15.8003 2.36328 16.1562 2.36328H17.2734V1.07422H16.1562C15.8003 1.07422 15.5117 1.3628 15.5117 1.71875Z" fill="#fff"/>
<path d="M6.48828 1.71875C6.48828 1.3628 6.1997 1.07422 5.84375 1.07422H4.72656V2.36328H5.84375C6.1997 2.36328 6.48828 2.0747 6.48828 1.71875Z" fill="#fff"/>
<path d="M19.6367 17.2734H20.9258V16.1562C20.9258 15.8003 20.6372 15.5117 20.2812 15.5117C19.9253 15.5117 19.6367 15.8003 19.6367 16.1562V17.2734Z" fill="#fff"/>
<path d="M1.07422 17.2734H2.36328V16.1562C2.36328 15.8003 2.0747 15.5117 1.71875 15.5117C1.3628 15.5117 1.07422 15.8003 1.07422 16.1562V17.2734Z" fill="#fff"/>
<path d="M5.84375 19.6367H4.72656V20.9258H5.84375C6.1997 20.9258 6.48828 20.6372 6.48828 20.2812C6.48828 19.9253 6.1997 19.6367 5.84375 19.6367Z" fill="#fff"/>
<path d="M15.5117 20.2812C15.5117 20.6372 15.8003 20.9258 16.1562 20.9258H17.2734V19.6367H16.1562C15.8003 19.6367 15.5117 19.9253 15.5117 20.2812Z" fill="#fff"/>
<path d="M2.79297 18.5625H0.644531C0.288578 18.5625 0 18.8511 0 19.207V21.3555C0 21.7114 0.288578 22 0.644531 22H2.79297C3.14892 22 3.4375 21.7114 3.4375 21.3555V19.207C3.4375 18.8511 3.14892 18.5625 2.79297 18.5625Z" fill="#fffA"/>
</svg>

