<svg width="26" height="19" viewBox="0 0 26 19" fill="none" xmlns="http://www.w3.org/2000/svg">
<path d="M2.16667 2.11111H8.66667V0H2.16667H0V2.11111V8.44444H2.16667V2.11111Z" fill="#898989"/>
<path d="M23.8335 0H17.3335V2.11111H23.8335V8.44444H26.0002V2.11111V0H23.8335Z" fill="#898989"/>
<path d="M2.16667 10.5555H0V16.8889V19H2.16667H8.66667V16.8889H2.16667V10.5555Z" fill="#898989"/>
<path d="M23.8335 16.8889H17.3335V19H23.8335H26.0002V16.8889V10.5555H23.8335V16.8889Z" fill="#898989"/>
<path d="M21.6668 4.22217H4.3335V14.7777H21.6668V4.22217Z" fill="#898989"/>
<path d="M9.42552 11.1021V11.9176H6.17042V11.1021H7.38043V8.22735C7.31795 8.30972 7.20433 8.40033 7.03959 8.49918C6.87484 8.59802 6.6959 8.6804 6.50275 8.74629C6.31528 8.81219 6.1477 8.84514 6 8.84514V7.99671C6.11362 7.99671 6.24427 7.96376 6.39198 7.89786C6.53968 7.83196 6.68454 7.75508 6.82656 7.66722C6.97426 7.57386 7.09923 7.486 7.20149 7.40362C7.30374 7.31576 7.36339 7.25261 7.38043 7.21417H8.34333V11.1021H9.42552Z" fill="white"/>
<path d="M14.5954 9.50412C14.5954 9.98737 14.4988 10.4185 14.3056 10.7974C14.1182 11.1708 13.8597 11.4646 13.5302 11.6787C13.2007 11.8929 12.8286 12 12.4139 12C11.9936 12 11.6186 11.8929 11.2891 11.6787C10.9653 11.4646 10.7069 11.1708 10.5137 10.7974C10.3262 10.4185 10.2325 9.98737 10.2325 9.50412C10.2325 9.02087 10.3262 8.59253 10.5137 8.21911C10.7069 7.8402 10.9653 7.54366 11.2891 7.32949C11.6186 7.10983 11.9936 7 12.4139 7C12.8286 7 13.2007 7.10983 13.5302 7.32949C13.8597 7.54366 14.1182 7.8402 14.3056 8.21911C14.4988 8.59253 14.5954 9.02087 14.5954 9.50412ZM13.641 9.50412C13.641 9.17463 13.587 8.88633 13.4791 8.63921C13.3768 8.3866 13.232 8.19165 13.0445 8.05437C12.8627 7.91159 12.6525 7.8402 12.4139 7.8402C12.1697 7.8402 11.9538 7.91159 11.7663 8.05437C11.5789 8.19165 11.4312 8.3866 11.3232 8.63921C11.221 8.88633 11.1698 9.17463 11.1698 9.50412C11.1698 9.99835 11.2835 10.3992 11.5107 10.7068C11.7436 11.0088 12.0447 11.1598 12.4139 11.1598C12.6525 11.1598 12.8627 11.0912 13.0445 10.9539C13.232 10.8166 13.3768 10.6244 13.4791 10.3773C13.587 10.1247 13.641 9.83361 13.641 9.50412Z" fill="white"/>
<path d="M20 9.50412C20 9.98737 19.9034 10.4185 19.7103 10.7974C19.5228 11.1708 19.2643 11.4646 18.9348 11.6787C18.6054 11.8929 18.2333 12 17.8186 12C17.3982 12 17.0233 11.8929 16.6938 11.6787C16.37 11.4646 16.1115 11.1708 15.9183 10.7974C15.7309 10.4185 15.6371 9.98737 15.6371 9.50412C15.6371 9.02087 15.7309 8.59253 15.9183 8.21911C16.1115 7.8402 16.37 7.54366 16.6938 7.32949C17.0233 7.10983 17.3982 7 17.8186 7C18.2333 7 18.6054 7.10983 18.9348 7.32949C19.2643 7.54366 19.5228 7.8402 19.7103 8.21911C19.9034 8.59253 20 9.02087 20 9.50412ZM19.0456 9.50412C19.0456 9.17463 18.9917 8.88633 18.8837 8.63921C18.7815 8.3866 18.6366 8.19165 18.4491 8.05437C18.2674 7.91159 18.0572 7.8402 17.8186 7.8402C17.5743 7.8402 17.3584 7.91159 17.171 8.05437C16.9835 8.19165 16.8358 8.3866 16.7279 8.63921C16.6256 8.88633 16.5745 9.17463 16.5745 9.50412C16.5745 9.99835 16.6881 10.3992 16.9153 10.7068C17.1482 11.0088 17.4493 11.1598 17.8186 11.1598C18.0572 11.1598 18.2674 11.0912 18.4491 10.9539C18.6366 10.8166 18.7815 10.6244 18.8837 10.3773C18.9917 10.1247 19.0456 9.83361 19.0456 9.50412Z" fill="white"/>
</svg>
