<svg width="17" height="20" viewBox="0 0 17 20" fill="none" xmlns="http://www.w3.org/2000/svg">
<path d="M8.02722 13.1819V15.9092C8.80829 15.9092 9.44389 15.2974 9.44389 14.5455C9.44389 13.7937 8.80829 13.1819 8.02722 13.1819Z" fill="#898989"/>
<path d="M3.54104 13.1819H2.8327V14.5455H3.54104C3.93204 14.5455 4.24937 14.2401 4.24937 13.8637C4.24937 13.4873 3.93204 13.1819 3.54104 13.1819Z" fill="#898989"/>
<path d="M12.6688 0H1.88886C0.847167 0 0 0.816348 0 1.81819V18.1818C0 19.1845 0.847167 20 1.8889 20H15.1111C16.1528 20 17 19.1845 17 18.1818V4.1691L12.6688 0ZM3.54167 15.9091H2.83333V17.2727H1.41667V11.8182H3.54167C4.71276 11.8182 5.66667 12.7354 5.66667 13.8636C5.66667 14.9918 4.71276 15.9091 3.54167 15.9091ZM8.02776 17.2727H6.6111V11.8182H8.02776C9.59083 11.8182 10.8611 13.0409 10.8611 14.5454C10.8611 16.05 9.59083 17.2727 8.02776 17.2727ZM15.8667 13.1818H12.75V14.0909H15.1111V15.4545H12.75V17.2727H11.3333V13.1818C11.3333 12.43 11.9689 11.8182 12.75 11.8182H15.8667V13.1818ZM11.3333 5.45454V0.909075L16.0555 5.45454H11.3333Z" fill="#898989"/>
</svg>
