<svg width="22" height="22" viewBox="0 0 22 22" fill="none" xmlns="http://www.w3.org/2000/svg">
<path d="M21.3621 18.3779L16.2972 13.3153C15.5374 14.5172 14.5164 15.538 13.3145 16.2978L18.3782 21.3591C18.7825 21.7664 19.3443 22 19.9229 22C21.0679 22 21.9999 21.0695 21.9999 19.9212C21.9999 19.3403 21.7741 18.7928 21.3621 18.3779Z" fill="#898989"/>
<path d="M16.4771 8.23853C16.4771 3.69583 12.7813 0 8.23853 0C3.69574 0 0 3.69583 0 8.23853C0 12.7812 3.69579 16.4771 8.23853 16.4771C12.7813 16.4771 16.4771 12.7813 16.4771 8.23853ZM11 8.88306H5.4771C5.12115 8.88306 4.83257 8.59448 4.83257 8.23853C4.83257 7.88258 5.12115 7.594 5.4771 7.594H11C11.356 7.594 11.6445 7.88258 11.6445 8.23853C11.6445 8.59448 11.356 8.88306 11 8.88306Z" fill="#898989"/>
</svg>
