<svg width="22" height="22" viewBox="0 0 22 22" fill="none" xmlns="http://www.w3.org/2000/svg">
<path d="M20.7109 2.70424V1.28906H21.3555C21.7117 1.28906 22 1.00079 22 0.644531C22 0.288277 21.7117 0 21.3555 0H0.644531C0.288277 0 0 0.288277 0 0.644531C0 1.00079 0.288277 1.28906 0.644531 1.28906H1.28906V2.70424C1.02614 2.79722 0.776574 2.93451 0.5665 3.14458C-0.187559 3.89864 -0.187559 5.12475 0.5665 5.87881L2.06877 7.33812C1.73014 8.05565 1.83975 8.93252 2.43225 9.52505L3.34366 10.4365C3.59541 10.6882 4.00331 10.6882 4.25507 10.4365L7.90131 6.79022C8.15306 6.53847 8.15306 6.13057 7.90131 5.87881L6.9899 4.9674C6.39697 4.37448 5.52011 4.26551 4.80296 4.60393L3.30069 3.14462C3.09061 2.93455 2.84105 2.79722 2.57812 2.70424V1.28906H19.4219V2.70424C19.1589 2.79722 18.9094 2.93451 18.6993 3.14458L17.197 4.60397C16.4794 4.26542 15.6026 4.37439 15.0101 4.9674L14.0987 5.87881C13.8469 6.13057 13.8469 6.53847 14.0987 6.79022L17.7449 10.4365C17.9967 10.6882 18.4046 10.6882 18.6563 10.4365L19.5678 9.52505C20.1603 8.93252 20.2699 8.05565 19.9312 7.33812L21.3905 5.87881C22.1446 5.12475 22.1876 3.89864 21.4335 3.14458C21.2234 2.93451 20.9739 2.79722 20.7109 2.70424Z" fill="#898989"/>
<path d="M11 16.7578C7.08443 16.7578 3.91016 17.955 3.91016 19.3789C3.91016 20.8028 7.08443 22 11 22C14.9156 22 18.0898 20.8028 18.0898 19.3789C18.0898 17.955 14.9156 16.7578 11 16.7578Z" fill="#898989"/>
<path d="M14.5562 9.07068L7.93355 15.7116C8.92419 15.5496 9.97095 15.4688 11 15.4688C13.0645 15.4688 15.1997 15.7912 16.8008 16.4575V11.3152L14.5562 9.07068Z" fill="#898989"/>
<path d="M7.30409 9.21033L5.19922 11.3152V16.4699C5.29435 16.4305 5.38003 16.3851 5.4786 16.3479L9.97923 11.8349L7.30409 9.21033Z" fill="#898989"/>
</svg>
