<svg width="25" height="22" viewBox="0 0 25 22" fill="none" xmlns="http://www.w3.org/2000/svg">
<path d="M19.2668 15.1756L23.9277 10.4769C25.3553 9.03766 25.3553 6.69495 23.9277 5.25575L19.785 1.0794C18.3566 -0.359801 16.0328 -0.359801 14.6059 1.0794L9.94492 5.77816L19.2668 15.1756Z" fill="#fff"/>
<path d="M24.2677 20.5233H13.9617L18.2306 16.2197L8.90879 6.82227L4.24784 11.521C2.82022 12.9602 2.82022 15.3029 4.24784 16.7421L9.24887 21.7837C9.38618 21.9221 9.57216 22 9.76669 22C10.2101 22 24.6559 22 24.2676 22C24.6725 22 25.0001 21.6698 25.0001 21.2617C25.0001 20.8536 24.6725 20.5233 24.2677 20.5233V20.5233Z" fill="#fff"/>
<path d="M2.2949 20.5232H0.732416C0.327585 20.5232 0 20.193 0 19.7849C0 19.3768 0.327585 19.0465 0.732416 19.0465H2.2949C2.69973 19.0465 3.02732 19.3768 3.02732 19.7849C3.02732 20.193 2.69973 20.5232 2.2949 20.5232Z" fill="#fff"/>
<path d="M1.56339 17.8755L0.527702 16.8314C0.24162 16.543 0.24162 16.0757 0.527702 15.7873C0.813784 15.4989 1.27731 15.4989 1.56339 15.7873L2.59907 16.8314C2.88515 17.1198 2.88515 17.5871 2.59907 17.8755C2.31299 18.1639 1.84952 18.164 1.56339 17.8755Z" fill="#fff"/>
</svg>
