<svg width="16" height="14" viewBox="0 0 16 14" fill="none" xmlns="http://www.w3.org/2000/svg">
<path d="M0.708781 6.44051L5.42753 3.65236C5.73137 3.47284 5.73303 3.03477 5.42753 2.85424L0.708781 0.0660844C0.396781 -0.118293 0 0.105047 0 0.465131V6.04147C0 6.4031 0.398094 6.62405 0.708781 6.44051V6.44051Z" fill="#898989"/>
<path d="M15.5312 7.46484H0.46875C0.209875 7.46484 0 7.67285 0 7.92943V9.78776C0 10.0443 0.209875 10.2523 0.46875 10.2523H15.5312C15.7901 10.2523 16 10.0443 16 9.78776V7.92943C16 7.67285 15.7901 7.46484 15.5312 7.46484Z" fill="#898989"/>
<path d="M15.5312 11.2125H0.46875C0.209875 11.2125 0 11.4205 0 11.6771V13.5354C0 13.792 0.209875 14 0.46875 14H15.5312C15.7901 14 16 13.792 16 13.5354V11.6771C16 11.4205 15.7901 11.2125 15.5312 11.2125Z" fill="#898989"/>
<path d="M15.5312 3.71716H7.09277C6.8339 3.71716 6.62402 3.92517 6.62402 4.18175V6.04008C6.62402 6.29666 6.8339 6.50466 7.09277 6.50466H15.5312C15.7901 6.50466 16 6.29666 16 6.04008V4.18175C16 3.92517 15.7901 3.71716 15.5312 3.71716Z" fill="#898989"/>
<path d="M15.5312 0.000610352H7.09277C6.8339 0.000610352 6.62402 0.20862 6.62402 0.465194V2.32353C6.62402 2.5801 6.8339 2.78811 7.09277 2.78811H15.5312C15.7901 2.78811 16 2.5801 16 2.32353V0.465194C16 0.20862 15.7901 0.000610352 15.5312 0.000610352Z" fill="#898989"/>
</svg>
