<svg width="21" height="22" viewBox="0 0 21 22" fill="none" xmlns="http://www.w3.org/2000/svg">
<path d="M8.3522 17.875C6.11572 17.875 4.29539 16.1269 4.29539 13.9791V4.58337H2.62502C1.17697 4.58337 0 5.71348 0 7.10409V19.4791C0 20.8697 1.17697 22 2.62502 22H14.5565C16.0046 22 17.1815 20.8697 17.1815 19.4791V17.875H8.3522Z" fill="#898989"/>
<path d="M20.9999 2.52089C20.9999 1.12843 19.8249 0 18.3751 0H8.35249C6.90252 0 5.72748 1.12843 5.72748 2.52089V13.9791C5.72748 15.3716 6.90252 16.5 8.35249 16.5H18.3751C19.8249 16.5 20.9999 15.3716 20.9999 13.9791V2.52089Z" fill="#898989"/>
</svg>
