<svg width="17" height="22" viewBox="0 0 17 22" fill="none" xmlns="http://www.w3.org/2000/svg">
<path d="M12.0417 7.33333C11.4781 7.33333 10.9376 7.10155 10.5391 6.68897C10.1405 6.27639 9.91667 5.71681 9.91667 5.13333V0H2.125C1.56141 0 1.02091 0.231785 0.622398 0.644365C0.223883 1.05695 0 1.61652 0 2.2V19.8C0 20.3835 0.223883 20.9431 0.622398 21.3556C1.02091 21.7682 1.56141 22 2.125 22H14.875C15.4386 22 15.9791 21.7682 16.3776 21.3556C16.7761 20.9431 17 20.3835 17 19.8V7.33333H12.0417Z" fill="#898989"/>
<path d="M11.3334 5.13336C11.3334 5.32785 11.408 5.51438 11.5409 5.65191C11.6737 5.78943 11.8539 5.8667 12.0417 5.8667H16.5481C16.4936 5.79336 11.4042 0.524362 11.3334 0.467896V5.13336Z" fill="#898989"/>
</svg>
