<svg width="23" height="14" viewBox="0 0 23 14" fill="none" xmlns="http://www.w3.org/2000/svg">
<path d="M2.24999 8H0.749997C0.335997 8 0 8.336 0 8.75C0 9.164 0.335997 9.49999 0.749997 9.49999H2.24999C2.38805 9.49999 2.49993 9.61205 2.49993 9.74993V10.0001C2.49993 10.1379 2.38805 10.25 2.24999 10.25H1.74993C0.78497 10.25 0 11.035 0 11.9999V13.25C0 13.664 0.335997 14 0.749997 14H3.24992C3.66392 14 3.99992 13.664 3.99992 13.25C3.99992 12.836 3.66392 12.5 3.24992 12.5H1.49999V11.9999C1.49999 11.862 1.61205 11.75 1.74993 11.75H2.24999C3.21495 11.75 3.99992 10.965 3.99992 10.0001V9.74993C3.99992 8.78497 3.21495 8 2.24999 8V8Z" fill="#898989"/>
<path d="M0.749997 1.49999H1.49999V5.24998C1.49999 5.66398 1.83599 5.99997 2.24999 5.99997C2.66399 5.99997 2.99999 5.66398 2.99999 5.24998V0.749997C2.99999 0.335997 2.66399 0 2.24999 0H0.749997C0.335997 0 0 0.335997 0 0.749997C0 1.164 0.335997 1.49999 0.749997 1.49999Z" fill="#898989"/>
<path d="M6.99993 4.00017H21.9999C22.5528 4.00017 23 3.55303 23 3.00006C23 2.44708 22.5528 2.00012 21.9999 2.00012H6.99993C6.44696 2.00012 6 2.44708 6 3.00006C6 3.55303 6.44696 4.00017 6.99993 4.00017V4.00017Z" fill="#898989"/>
<path d="M21.9999 10.0001H6.99993C6.44696 10.0001 6 10.4471 6 11.0001C6 11.553 6.44696 12 6.99993 12H21.9999C22.5528 12 23 11.553 23 11.0001C23 10.4471 22.5528 10.0001 21.9999 10.0001V10.0001Z" fill="#898989"/>
</svg>
