<svg width="20" height="20" viewBox="0 0 20 20" fill="none" xmlns="http://www.w3.org/2000/svg">
<circle cx="10" cy="10" r="9.5" fill="#898989" stroke="#898989"/>
<path d="M14.1448 8.98207C14.09 8.80599 13.9403 8.68132 13.7639 8.66467L11.3584 8.43677L10.4077 6.11415C10.3375 5.94351 10.1778 5.83337 9.99998 5.83337C9.82222 5.83337 9.66244 5.94351 9.5927 6.11415L8.642 8.43677L6.23603 8.66467C6.05966 8.68165 5.91031 8.80632 5.85513 8.98207C5.80026 9.15815 5.85093 9.35128 5.98432 9.47336L7.80275 11.1372L7.26659 13.6014C7.22736 13.7826 7.29475 13.97 7.43882 14.0787C7.51626 14.1374 7.60724 14.1667 7.69854 14.1667C7.777 14.1667 7.85552 14.1449 7.92565 14.1012L9.99998 12.8069L12.0739 14.1012C12.2261 14.196 12.4174 14.1873 12.5611 14.0787C12.7052 13.97 12.7726 13.7826 12.7334 13.6014L12.1972 11.1372L14.0156 9.47336C14.149 9.35128 14.1997 9.15855 14.1448 8.98207V8.98207Z" fill="white"/>
</svg>
