<svg width="20" height="20" viewBox="0 0 20 20" fill="none" xmlns="http://www.w3.org/2000/svg">
<path d="M5 3.57143V0H12.1429V3.57143C12.1429 3.76087 12.0676 3.94255 11.9336 4.0765C11.7997 4.21046 11.618 4.28571 11.4286 4.28571H5.71429C5.52485 4.28571 5.34316 4.21046 5.20921 4.0765C5.07526 3.94255 5 3.76087 5 3.57143ZM4.28571 20H15.7143V17.5429H4.28571V20ZM4.28571 16.1143H15.7143V14.6857H4.28571V16.1143ZM19.2857 4.78571L15.9786 0.778571C15.7778 0.535373 15.5258 0.339493 15.2406 0.20491C14.9554 0.0703272 14.6439 0.000359422 14.3286 0H13.5714V3.57143C13.5714 4.13975 13.3457 4.68479 12.9438 5.08666C12.5419 5.48852 11.9969 5.71429 11.4286 5.71429H5.71429C5.14596 5.71429 4.60092 5.48852 4.19906 5.08666C3.79719 4.68479 3.57143 4.13975 3.57143 3.57143V0H2.14286C1.57454 0 1.02949 0.225765 0.627628 0.627628C0.225765 1.02949 0 1.57454 0 2.14286V17.8571C0 18.4255 0.225765 18.9705 0.627628 19.3724C1.02949 19.7742 1.57454 20 2.14286 20H2.85714V12.8571C2.85714 12.2888 3.08291 11.7438 3.48477 11.3419C3.88664 10.9401 4.43168 10.7143 5 10.7143H15C15.5683 10.7143 16.1134 10.9401 16.5152 11.3419C16.9171 11.7438 17.1429 12.2888 17.1429 12.8571V20H17.8571C18.4255 20 18.9705 19.7742 19.3724 19.3724C19.7742 18.9705 20 18.4255 20 17.8571V6.37143C19.9984 6.07187 19.934 5.77598 19.811 5.50285C19.6879 5.22972 19.509 4.98542 19.2857 4.78571V4.78571ZM15 12.1429H5C4.81056 12.1429 4.62888 12.2181 4.49492 12.3521C4.36097 12.486 4.28571 12.6677 4.28571 12.8571V13.2571H15.7143V12.8571C15.7143 12.6677 15.639 12.486 15.5051 12.3521C15.3711 12.2181 15.1894 12.1429 15 12.1429Z" fill="#fff"/>
</svg>
