<svg width="14" height="12" viewBox="0 0 14 12" fill="none" xmlns="http://www.w3.org/2000/svg">
<path d="M6.71507 2.19368V1.06278C6.71464 0.867443 6.7659 0.67577 6.86322 0.508892C6.96053 0.342014 7.10012 0.206413 7.26659 0.117036C7.43343 0.0281898 7.62039 -0.0113173 7.80722 0.00279582C7.99405 0.0169089 8.17361 0.0841039 8.32645 0.197099L13.5778 4.1102C13.7086 4.20956 13.815 4.33977 13.8884 4.49022C13.9618 4.64067 14 4.80708 14 4.97588C14 5.14469 13.9618 5.3111 13.8884 5.46155C13.815 5.61199 13.7086 5.74221 13.5778 5.84157L8.30247 9.74966C8.15062 9.86392 7.97148 9.93221 7.78481 9.94701C7.59813 9.9618 7.41116 9.92253 7.24451 9.83352C7.07787 9.74451 6.93801 9.60921 6.84036 9.44255C6.74271 9.27589 6.69105 9.08432 6.69109 8.88898V7.55793C5.73194 7.58295 3.36763 7.79812 1.99125 9.18922C1.38408 9.81159 1.01715 10.645 0.960164 11.5311C0.95607 11.5968 0.939612 11.661 0.91173 11.7201C0.883846 11.7792 0.845085 11.8319 0.797658 11.8754C0.750231 11.9188 0.695066 11.9521 0.635315 11.9733C0.575563 11.9945 0.512394 12.0032 0.449415 11.9989C0.386436 11.9947 0.324882 11.9775 0.268263 11.9484C0.211645 11.9193 0.161073 11.8789 0.119434 11.8294C0.0777969 11.7799 0.045908 11.7223 0.025589 11.66C0.00527 11.5976 -0.00308132 11.5317 0.0010128 11.466C0.0441742 8.09836 0.883432 5.58637 2.49481 3.9901C3.64396 2.87339 5.14521 2.23435 6.71507 2.19368Z" fill="#898989"/>
</svg>
