<svg width="20" height="22" viewBox="0 0 20 22" fill="none" xmlns="http://www.w3.org/2000/svg">
<path d="M9.59702 11.2869C9.94271 10.7009 10.6081 10.3358 11.3333 10.3358C11.5666 10.3358 11.7878 10.3855 12 10.4562V5.80078C12 5.44453 11.7018 5.15625 11.3333 5.15625H0.666667C0.298178 5.15625 0 5.44453 0 5.80078V16.1133C0 16.4695 0.298178 16.7578 0.666667 16.7578H6.36338L9.59702 11.2869Z" fill="#898989"/>
<path d="M14.0001 0C11.3962 0 9.19695 1.62138 8.36868 3.86719H11.3334C12.4363 3.86719 13.3334 4.73455 13.3334 5.80078V11.5586C13.5548 11.583 13.777 11.6016 14.0001 11.6016C17.3087 11.6016 20.0001 8.9995 20.0001 5.80078C20.0001 2.60206 17.3087 0 14.0001 0Z" fill="#898989"/>
<path d="M16.6667 22H6.00004C5.76239 22 5.54301 21.8779 5.42319 21.679C5.30403 21.4801 5.30341 21.2352 5.42124 21.0357L10.7546 11.9263C10.9915 11.5247 11.6751 11.5247 11.9121 11.9263L17.2455 21.0357C17.3633 21.2352 17.3627 21.4801 17.2435 21.679C17.1237 21.8779 16.9043 22 16.6667 22Z" fill="#898989"/>
</svg>
