<svg width="18" height="18" viewBox="0 0 18 18" fill="none" xmlns="http://www.w3.org/2000/svg">
<path d="M6.1471 5.10055L8.06887 3.17878V13.3449C8.06887 13.5918 8.16696 13.8286 8.34157 14.0032C8.51617 14.1778 8.75298 14.2759 8.99991 14.2759C9.24683 14.2759 9.48365 14.1778 9.65825 14.0032C9.83285 13.8286 9.93094 13.5918 9.93094 13.3449V3.17878L11.8527 5.10055C11.9391 5.18739 12.0417 5.25634 12.1548 5.30344C12.2679 5.35054 12.3891 5.37487 12.5116 5.37504C12.6341 5.3752 12.7554 5.3512 12.8685 5.30441C12.9817 5.25762 13.0846 5.18895 13.1712 5.10234C13.2578 5.01574 13.3265 4.9129 13.3732 4.79971C13.42 4.68652 13.444 4.56522 13.4439 4.44274C13.4437 4.32026 13.4194 4.19902 13.3723 4.08596C13.3252 3.9729 13.2562 3.87024 13.1694 3.78387L9.65827 0.272711C9.57181 0.186251 9.46917 0.117667 9.35621 0.0708754C9.24325 0.0240835 9.12218 0 8.99991 0C8.87764 0 8.75657 0.0240835 8.64361 0.0708754C8.53064 0.117667 8.42801 0.186251 8.34155 0.272711L4.83043 3.78387C4.74359 3.87024 4.67464 3.9729 4.62754 4.08596C4.58044 4.19902 4.55611 4.32026 4.55594 4.44274C4.55577 4.56522 4.57977 4.68652 4.62657 4.79971C4.67336 4.9129 4.74203 5.01574 4.82863 5.10234C4.91524 5.18895 5.01808 5.25762 5.13127 5.30441C5.24445 5.3512 5.36576 5.3752 5.48824 5.37504C5.61072 5.37487 5.73196 5.35054 5.84502 5.30344C5.95808 5.25634 6.06073 5.18739 6.1471 5.10055V5.10055Z" fill="#fff"/>
<path d="M17.069 8.06897C16.822 8.06897 16.5852 8.16706 16.4106 8.34166C16.236 8.51627 16.1379 8.75308 16.1379 9V16.1379H1.86207V9C1.86207 8.75308 1.76398 8.51627 1.58938 8.34166C1.41477 8.16706 1.17796 8.06897 0.931034 8.06897C0.684109 8.06897 0.447297 8.16706 0.272694 8.34166C0.0980909 8.51627 0 8.75308 0 9V16.4483C0 16.8598 0.163485 17.2545 0.454489 17.5455C0.745494 17.8365 1.14018 18 1.55172 18H16.4483C16.8598 18 17.2545 17.8365 17.5455 17.5455C17.8365 17.2545 18 16.8598 18 16.4483V9C18 8.75308 17.9019 8.51627 17.7273 8.34166C17.5527 8.16706 17.3159 8.06897 17.069 8.06897Z" fill="#fff"/>
</svg>
