<svg width="20" height="22" viewBox="0 0 20 22" fill="none" xmlns="http://www.w3.org/2000/svg">
<path d="M15.904 14.789C16.1639 15.1606 16.3187 15.6067 16.3187 16.0923C16.3187 17.3463 15.2896 18.3722 14.0209 18.3722C13.5315 18.3722 13.077 18.2186 12.7073 17.9608L12.2927 18.3722C12.8322 18.6199 13.4166 18.7785 14.0209 18.7785C16.1588 18.7785 18.0069 16.7862 18.5863 16.0925C18.2468 15.691 17.4825 14.8484 16.4785 14.2141L15.904 14.789Z" fill="#898989"/>
<path d="M7.4776 14.3726H3.13682C2.91708 14.3726 2.73726 14.1943 2.73726 13.9761C2.73726 13.7581 2.91708 13.5796 3.13682 13.5796H7.74234C7.99693 12.9355 8.33662 12.3901 8.75631 11.845H3.13682C2.91708 11.845 2.73726 11.6667 2.73726 11.4485C2.73726 11.2305 2.91708 11.052 3.13682 11.052H9.51553C10.7142 10.0112 12.3027 9.34722 14.036 9.34722C14.2007 9.34722 14.3357 9.36199 14.5355 9.37693V5.30295H11.5384C10.3796 5.30295 9.44059 4.36133 9.44059 3.21645V0H1.77826C0.789154 0 0 0.802811 0 1.78908V16.9151C0 17.9014 0.789154 18.6844 1.77826 18.6844H7.79715C7.45256 17.8915 7.26276 16.9994 7.26276 16.0676C7.25768 15.4829 7.3377 14.9177 7.4776 14.3726ZM3.13682 8.57395H8.19689C8.41663 8.57395 8.59645 8.75237 8.59645 8.97057C8.59645 9.18861 8.41663 9.36703 8.19689 9.36703H3.13682C2.91708 9.36703 2.73726 9.18861 2.73726 8.97057C2.73726 8.75237 2.91708 8.57395 3.13682 8.57395Z" fill="#898989"/>
<path d="M14.0309 10.155C10.7392 10.155 8.06187 12.8114 8.06187 16.0775C8.06187 19.3435 10.7392 22 14.0309 22C17.3226 22 20 19.3435 20 16.0775C20 12.8114 17.3226 10.155 14.0309 10.155ZM19.4206 15.8595C19.5255 15.9981 19.5255 16.1864 19.4206 16.3252C19.3206 16.459 16.998 19.5665 14.021 19.5665C13.1818 19.5665 12.3927 19.3188 11.6933 18.962L10.5594 20.087C10.4794 20.1663 10.3796 20.201 10.2747 20.201C10.1698 20.201 10.0699 20.1612 9.99002 20.087C9.83506 19.9333 9.83506 19.6805 9.99002 19.5269L10.979 18.5455C9.59028 17.6237 8.68136 16.4095 8.6213 16.3252C8.51642 16.1864 8.51642 15.9981 8.6213 15.8595C8.72128 15.7255 11.0439 12.6182 14.0209 12.6182C14.8601 12.6182 15.6493 12.8659 16.3486 13.2228L17.4825 12.0977C17.6373 11.9441 17.892 11.9441 18.047 12.0977C18.2018 12.2514 18.2018 12.5042 18.047 12.6578L17.0579 13.639C18.4466 14.561 19.3606 15.7801 19.4206 15.8595Z" fill="#898989"/>
<path d="M11.5384 4.51006H13.986L10.2397 0.599731V3.21646C10.2397 3.92528 10.8191 4.51006 11.5384 4.51006Z" fill="#898989"/>
<path d="M12.5275 16.0924C12.5275 16.3601 12.5973 16.6078 12.7222 16.821L14.7603 14.799C14.5404 14.6751 14.2907 14.6056 14.0259 14.6056C13.1967 14.6106 12.5275 15.2746 12.5275 16.0924Z" fill="#898989"/>
<path d="M14.0211 13.8175C14.5105 13.8175 14.965 13.9712 15.3346 14.2289L15.7493 13.8175C15.2098 13.5697 14.6253 13.4111 14.0211 13.4111C11.8832 13.4111 10.035 15.4035 9.45548 16.0974C9.79516 16.4988 10.5594 17.3413 11.5634 17.9757L12.1428 17.4009C11.8832 17.0291 11.7282 16.5831 11.7282 16.0974C11.7282 14.8385 12.7572 13.8175 14.0211 13.8175Z" fill="#898989"/>
<path d="M15.5195 16.0922C15.5195 15.8247 15.4495 15.5769 15.3246 15.3638L13.2867 17.3858C13.5065 17.5097 13.7563 17.5792 14.0211 17.5792C14.8452 17.5792 15.5195 16.9101 15.5195 16.0922Z" fill="#898989"/>
</svg>
