<svg width="14" height="12" viewBox="0 0 14 12" fill="none" xmlns="http://www.w3.org/2000/svg">
<path d="M7.28493 2.19368V1.06278C7.28536 0.867443 7.2341 0.67577 7.13678 0.508892C7.03947 0.342014 6.89988 0.206413 6.73341 0.117036C6.56657 0.0281898 6.37961 -0.0113173 6.19278 0.00279582C6.00595 0.0169089 5.82639 0.0841039 5.67355 0.197099L0.422198 4.1102C0.291412 4.20956 0.184992 4.33977 0.111619 4.49022C0.0382466 4.64067 0 4.80708 0 4.97588C0 5.14469 0.0382466 5.3111 0.111619 5.46155C0.184992 5.61199 0.291412 5.74221 0.422198 5.84157L5.69753 9.74966C5.84938 9.86392 6.02852 9.93221 6.21519 9.94701C6.40187 9.9618 6.58884 9.92253 6.75549 9.83352C6.92213 9.74451 7.06199 9.60921 7.15964 9.44255C7.25729 9.27589 7.30895 9.08432 7.30891 8.88898V7.55793C8.26806 7.58295 10.6324 7.79812 12.0087 9.18922C12.6159 9.81159 12.9828 10.645 13.0398 11.5311C13.0439 11.5968 13.0604 11.661 13.0883 11.7201C13.1162 11.7792 13.1549 11.8319 13.2023 11.8754C13.2498 11.9188 13.3049 11.9521 13.3647 11.9733C13.4244 11.9945 13.4876 12.0032 13.5506 11.9989C13.6136 11.9947 13.6751 11.9775 13.7317 11.9484C13.7884 11.9193 13.8389 11.8789 13.8806 11.8294C13.9222 11.7799 13.9541 11.7223 13.9744 11.66C13.9947 11.5976 14.0031 11.5317 13.999 11.466C13.9558 8.09836 13.1166 5.58637 11.5052 3.9901C10.356 2.87339 8.85479 2.23435 7.28493 2.19368Z" fill="#898989"/>
</svg>
