<svg width="14" height="20" viewBox="0 0 14 20" fill="none" xmlns="http://www.w3.org/2000/svg">
<path d="M7.00003 12.8571C6.80467 12.8573 6.61738 12.9326 6.47925 13.0665C6.34111 13.2004 6.26341 13.382 6.26318 13.5713C6.26331 13.6714 6.28539 13.7702 6.32794 13.8614C6.3705 13.9525 6.43257 14.0338 6.51003 14.0999C6.5483 14.1334 6.5789 14.1743 6.59985 14.2199C6.62079 14.2656 6.63161 14.315 6.6316 14.365V16.4285H7.36845V14.3648C7.36844 14.3148 7.37926 14.2654 7.4002 14.2198C7.42115 14.1741 7.45175 14.1332 7.49003 14.0997C7.56743 14.0336 7.62946 13.9523 7.67201 13.8612C7.71457 13.7702 7.73667 13.6713 7.73687 13.5713C7.7366 13.382 7.65889 13.2004 7.52076 13.0665C7.38263 12.9326 7.19537 12.8573 7.00003 12.8571V12.8571Z" fill="#898989"/>
<path d="M12.1579 9.28577H1.84211C1.35373 9.28632 0.885512 9.47464 0.540175 9.80941C0.194838 10.1442 0.000575271 10.5981 0 11.0715V16.0715C0.00121889 17.113 0.428583 18.1116 1.18833 18.8481C1.94809 19.5846 2.97818 19.9989 4.05263 20.0001H9.94737C11.0218 19.9989 12.0519 19.5846 12.8117 18.8481C13.5714 18.1116 13.9988 17.113 14 16.0715V11.0715C13.9994 10.5981 13.8052 10.1442 13.4598 9.80941C13.1145 9.47464 12.6463 9.28632 12.1579 9.28577V9.28577ZM8.10526 14.5108V16.7858C8.10526 16.8805 8.06645 16.9713 7.99736 17.0383C7.92826 17.1053 7.83455 17.1429 7.73684 17.1429H6.26316C6.16545 17.1429 6.07174 17.1053 6.00264 17.0383C5.93355 16.9713 5.89474 16.8805 5.89474 16.7858V14.5108C5.70715 14.3046 5.58492 14.0503 5.54272 13.7784C5.50052 13.5066 5.54014 13.2287 5.65683 12.9781C5.77351 12.7275 5.96231 12.5149 6.20056 12.3658C6.43881 12.2166 6.71639 12.1373 7 12.1373C7.28361 12.1373 7.56119 12.2166 7.79944 12.3658C8.03769 12.5149 8.22649 12.7275 8.34317 12.9781C8.45986 13.2287 8.49948 13.5066 8.45728 13.7784C8.41508 14.0503 8.29285 14.3046 8.10526 14.5108V14.5108Z" fill="#898989"/>
<path d="M7.00001 0C5.53484 0.00157865 4.13015 0.566497 3.09411 1.57081C2.05808 2.57513 1.47532 3.93682 1.47369 5.35714V8.57143H3.68422V5.35714C3.68422 4.50466 4.03356 3.68709 4.65539 3.0843C5.27722 2.4815 6.12061 2.14286 7.00001 2.14286C7.87941 2.14286 8.7228 2.4815 9.34463 3.0843C9.96646 3.68709 10.3158 4.50466 10.3158 5.35714C10.3158 5.45186 10.3546 5.5427 10.4237 5.60968C10.4928 5.67666 10.5865 5.71429 10.6842 5.71429H12.1579C12.2556 5.71429 12.3493 5.67666 12.4184 5.60968C12.4875 5.5427 12.5263 5.45186 12.5263 5.35714C12.5247 3.93682 11.942 2.57511 10.9059 1.57078C9.8699 0.56646 8.46519 0.00155035 7.00001 0V0Z" fill="#898989"/>
</svg>
