<svg width="25" height="22" viewBox="0 0 25 22" fill="none" xmlns="http://www.w3.org/2000/svg">
<path d="M22.7218 0C22.2768 0 21.9154 0.345905 21.9154 0.772971C21.9154 1.19955 22.2768 1.54594 22.7218 1.54594C23.0887 1.54594 23.3871 1.83194 23.3871 2.18316V19.8156C23.3871 20.1668 23.0887 20.4528 22.7218 20.4528C22.2768 20.4528 21.9154 20.7992 21.9154 21.2257C21.9154 21.6528 22.2768 21.9987 22.7218 21.9987C23.9778 21.9987 25 21.0194 25 19.8156V2.18316C25 0.979258 23.9778 0 22.7218 0V0ZM18.9845 0C18.5394 0 18.1781 0.345905 18.1781 0.772971C18.1781 1.19955 18.5394 1.54594 18.9845 1.54594C19.3514 1.54594 19.6498 1.83194 19.6498 2.18316V19.8156C19.6498 20.1668 19.3514 20.4528 18.9845 20.4528C18.5394 20.4528 18.1781 20.7992 18.1781 21.2257C18.1781 21.6528 18.5394 21.9987 18.9845 21.9987C20.241 21.9987 21.2627 21.0194 21.2627 19.8156V2.18316C21.2627 0.979258 20.241 0 18.9845 0V0ZM17.5254 2.18316V19.8156C17.5254 21.0195 16.5037 21.9987 15.2472 21.9987H7.69995C7.2539 21.9987 6.89302 21.6518 6.89352 21.2243C6.89554 20.5345 6.89251 19.16 6.89251 16.3614C6.89251 15.8266 6.4399 15.3932 5.88245 15.3932C2.96265 15.3932 1.52871 15.3903 0.808464 15.3922C0.362405 15.3928 0.000517498 15.0468 0.000517498 14.6192V2.18316C0.000517498 0.977325 1.02015 0 2.27819 0H15.2472C16.5037 0 17.5254 0.979258 17.5254 2.18316V2.18316ZM6.12035 16.9063V21.2258C6.12035 21.9009 5.26906 22.2648 4.74336 21.7727C-0.12448 17.1063 0.0799009 17.3761 0.0156382 17.0551C-0.0828477 16.5829 0.296126 16.1334 0.806952 16.1334H5.31392C5.75897 16.1334 6.12035 16.4793 6.12035 16.9063V16.9063Z" fill="#898989"/>
</svg>
