<svg width="12" height="18" viewBox="0 0 12 18"  xmlns="http://www.w3.org/2000/svg">
<path d="M11.8271 10.2816L0.993604 0.121631C0.596777 -0.173971 0 0.108163 0 0.550261V14.435C0 14.7458 0.268799 14.9979 0.6 14.9979C0.756006 14.9979 0.905566 14.9416 0.99126 14.8605L3.99272 12.4071L6.44077 17.7726C6.48237 17.8641 6.56074 17.9362 6.65918 17.9738C6.70723 17.9909 6.75762 18 6.80801 18C6.86162 18 6.91523 17.9894 6.96563 17.9692L9.54155 16.9334C9.74473 16.8525 9.83921 16.6318 9.75205 16.4412L7.38237 11.2453H11.4C11.7312 11.2453 12 10.9931 12 10.6824C12 10.5915 11.9752 10.4549 11.8271 10.2816V10.2816Z" fill="#fff"/>
</svg>
