<svg width="14" height="22" viewBox="0 0 14 22" fill="none" xmlns="http://www.w3.org/2000/svg">
<path d="M13.9728 9.46052C14.0287 9.28215 13.9974 9.08659 13.8887 8.93378L7.52776 0.00653919L7.58718 11.4684C7.80675 11.6444 7.9497 11.9164 7.95149 12.2214C7.95271 12.4774 7.85653 12.7167 7.6808 12.896C7.50496 13.0754 7.27063 13.1735 7.02065 13.1723C6.50462 13.1692 6.08264 12.7386 6.07949 12.2124C6.07816 11.957 6.17424 11.7176 6.35008 11.5382C6.37733 11.5104 6.40618 11.4846 6.4361 11.4608L6.37668 0L0.107832 8.85959C0.00050604 9.01101 -0.0286296 9.20636 0.0291044 9.38533L1.89418 15.1589L12.1675 15.2143L13.9728 9.46052Z" fill="#fff"/>
<path d="M1.64583 22L12.47 22C12.7879 22.0001 13.0456 21.7371 13.0456 21.4125L13.0457 16.9987C13.0456 16.8429 12.985 16.6936 12.877 16.5834C12.7691 16.4732 12.6227 16.4113 12.4701 16.4113L1.64586 16.4114C1.49321 16.4113 1.3468 16.4733 1.23879 16.5835C1.13088 16.6936 1.07027 16.843 1.07027 16.9988L1.07035 21.4127C1.07035 21.737 1.32805 22 1.64583 22Z" fill="#fff"/>
</svg>
